<?xml version="1.0" encoding="UTF-8" standalone="no"?>
<svg
   xmlns:dc="http://purl.org/dc/elements/1.1/"
   xmlns:cc="http://creativecommons.org/ns#"
   xmlns:rdf="http://www.w3.org/1999/02/22-rdf-syntax-ns#"
   xmlns:svg="http://www.w3.org/2000/svg"
   xmlns="http://www.w3.org/2000/svg"
   xmlns:sodipodi="http://sodipodi.sourceforge.net/DTD/sodipodi-0.dtd"
   xmlns:inkscape="http://www.inkscape.org/namespaces/inkscape"
   version="1.0"
   width="1024"
   height="1024"
   viewBox="0 0 1024 1024"
   preserveAspectRatio="xMidYMid meet"
   id="svg16"
   sodipodi:docname="Grateful.svg"
   inkscape:version="0.92.2 (5c3e80d, 2017-08-06)">
  <title
     id="title4518">Grateful</title>
  <metadata
     id="metadata22">
    <rdf:RDF>
      <cc:Work
         rdf:about="">
        <dc:format>image/svg+xml</dc:format>
        <dc:type
           rdf:resource="http://purl.org/dc/dcmitype/StillImage" />
        <dc:title>Grateful</dc:title>
      </cc:Work>
    </rdf:RDF>
  </metadata>
  <defs
     id="defs20" />
  <sodipodi:namedview
     pagecolor="#ffffff"
     bordercolor="#666666"
     borderopacity="1"
     objecttolerance="10"
     gridtolerance="10"
     guidetolerance="10"
     inkscape:pageopacity="0"
     inkscape:pageshadow="2"
     inkscape:window-width="1920"
     inkscape:window-height="1027"
     id="namedview18"
     showgrid="false"
     inkscape:zoom="0.49921875"
     inkscape:cx="486.76056"
     inkscape:cy="853.33333"
     inkscape:window-x="-8"
     inkscape:window-y="-8"
     inkscape:window-maximized="1"
     inkscape:current-layer="g14"
     units="px" />
  <g
     transform="matrix(0.1,0,0,-0.1,0,768.00005)"
     id="g14"
     style="fill:#000000;stroke:none">
    <path
       d="M 4879.5635,7678.8001 C 4509.1186,7653.9909 4286.6916,7624.38 4007.4578,7562.7572 3315.3739,7409.901 2632.8911,7096.9853 2063.2221,6671.228 939.88587,5830.9173 209.39727,4580.055 39.77671,3201.9455 14.173606,2997.0698 6.9727328,2894.6319 1.3720538,2669.7488 -15.429983,1943.8805 122.1867,1226.8154 408.62143,551.36575 467.82861,411.31398 618.24684,112.8036 695.05615,-19.245211 1434.3458,-1282.112 2686.4976,-2176.8427 4111.4704,-2460.1475 c 1217.7476,-242.4896 2470.6995,-40.0148 3541.2293,571.4113 301.6366,172.0636 577.6701,368.136 839.3018,596.2203 121.6148,105.6391 362.444,347.32841 473.6575,473.77515 947.3148,1081.19967 1394.569,2486.51915 1246.551,3915.84755 -53.606,511.389 -180.022,1000.3698 -384.0465,1481.3476 -57.607,134.4497 -208.8253,435.3609 -284.0344,564.2085 -761.6924,1300.4808 -2060.2499,2205.6153 -3536.4288,2464.1106 -281.6342,49.6183 -499.2606,68.8254 -824.0999,72.0266 -143.2174,1.6006 -280.034,1.6006 -304.0369,0 z m 460.0558,-459.3695 c 1044.1266,-55.2204 1975.4395,-420.9556 2780.3371,-1091.6035 136.0165,-113.642 418.4508,-392.145 535.2649,-528.9955 C 9208.0884,4952.1925 9576.133,4168.7029 9716.1499,3339.5964 9879.3697,2376.0402 9734.5522,1381.2725 9304.1,508.95007 9072.0719,38.376089 8792.838,-349.76739 8415.9923,-728.30732 8143.1592,-1002.0085 7896.7293,-1198.8813 7580.691,-1395.754 c -625.6759,-391.3447 -1308.9587,-618.6287 -2069.0509,-689.0547 -201.6244,-19.2071 -582.4706,-19.2071 -784.095,0 -794.4964,72.8269 -1500.982,316.1168 -2148.2605,739.4733 -882.507,577.01329 -1544.9873,1430.128647 -1877.02757,2418.494 -331.24016,987.5651 -326.43958,2028.75 12.80155,3014.7144 181.62205,528.1953 461.65602,1021.1775 839.30182,1474.9452 124.8151,151.256 416.8505,442.5636 568.8689,569.0104 478.458,397.747 981.7191,677.0502 1563.3896,867.5207 521.6632,170.463 1108.1343,248.892 1653.0004,220.0813 z"
       id="path2"
       inkscape:connector-curvature="0"
       style="stroke-width:0.80019641" />
    <path
       d="m 3036.1871,4437.5492 649.6788,431.3595 -125.6152,188.8698 c -72.0088,108.0399 -129.6157,187.2692 -135.2164,184.8683 -4.8006,-1.6005 -192.0233,-124.8461 -416.0505,-273.7011 -224.0271,-148.0548 -513.6622,-340.1258 -643.278,-425.7574 -129.6157,-85.6317 -236.8287,-156.858 -238.4289,-157.6583 -4.0004,-3.2012 248.0301,-380.1405 253.6308,-380.1405 2.4003,0 297.6361,194.4719 655.2794,432.1597 z"
       id="path4"
       inkscape:connector-curvature="0"
       style="stroke-width:0.80019641" />
    <path
       d="m 6556.9614,4798.6544 c -27.5806,-120.7564 -46.6228,-220.5195 -41.769,-222.1591 29.944,-12.0933 1531.6416,-355.366 1536.0829,-351.1939 7.1761,6.019 108.0123,437.8983 102.8845,440.2898 -13.0576,5.4661 -1536.2215,356.2535 -1540.7326,354.6113 -3.0073,-1.0949 -28.1334,-100.5179 -56.4658,-221.5481 z"
       id="path6"
       inkscape:connector-curvature="0"
       style="stroke-width:0.80019641" />
    <path
       d="m 3179.3574,3999.0402 c -152.0185,-37.6139 -271.2329,-156.0577 -312.0379,-309.7145 -15.2018,-55.2204 -15.2018,-159.2589 0,-214.4793 36.0044,-135.25 147.2179,-253.6938 280.8341,-297.71 270.4328,-89.6332 556.0674,116.0429 557.6676,400.9482 0.8001,77.6287 -13.6017,134.4497 -49.606,204.0754 -56.0068,108.8402 -168.8205,194.4719 -287.2348,219.2811 -54.4066,11.2041 -138.4168,10.4038 -189.623,-2.4009 z"
       id="path8"
       inkscape:connector-curvature="0"
       style="stroke-width:0.80019641" />
    <path
       d="m 6802.1966,3999.0402 c -148.018,-37.6139 -265.6322,-152.0562 -309.6375,-300.9112 -8.001,-26.4098 -13.6017,-72.827 -13.6017,-116.0429 0,-120.8447 32.804,-201.6746 118.4144,-292.108 128.0155,-136.0503 320.0388,-172.0636 489.6593,-92.034 108.8132,52.0192 205.625,170.463 232.0282,284.105 12.0014,52.8195 10.4012,157.6583 -3.2004,210.4778 -34.4042,133.6494 -140.017,248.0917 -272.033,294.5088 -60.0073,21.608 -181.622,27.2101 -241.6293,12.0045 z"
       id="path10"
       inkscape:connector-curvature="0"
       style="stroke-width:0.80019641" />
    <path
       d="M 4879.5635,4.7156465 C 4864.3617,6.3162381 4815.5557,11.918309 4771.5504,15.919788 4360.3005,59.135763 3939.4495,187.1831 3511.3976,401.66241 c -158.4192,79.22929 -425.6516,230.4852 -457.6555,260.09615 -12.8015,11.20414 -13.6016,37.6139 -13.6016,284.10502 0,211.27812 1.6002,271.30032 9.6012,268.09912 4.8005,-2.4009 60.0072,-38.4142 121.6147,-81.6302 565.6686,-392.14495 1141.7384,-617.02808 1706.6069,-668.24701 137.6167,-12.80474 484.0587,-6.40237 609.6739,12.00443 568.0689,80.02959 1096.1329,308.91419 1689.0048,731.47038 15.2018,10.4039 15.2018,5.6021 15.2018,-268.09909 V 660.15796 l -22.4027,-12.80473 c -12.0014,-7.20266 -64.0077,-38.4142 -115.214,-69.62574 C 6673.381,344.84141 6242.1287,166.3754 5855.6818,79.943455 5586.8492,19.921267 5466.8347,7.1165339 5163.5979,3.9153506 5022.7809,2.314759 4894.7653,3.1150548 4879.5635,4.7156465 Z"
       id="path12"
       inkscape:connector-curvature="0"
       style="stroke-width:0.80019641" />
  </g>
</svg>
