<?xml version="1.0" standalone="no"?>
<!DOCTYPE svg PUBLIC "-//W3C//DTD SVG 20010904//EN"
 "http://www.w3.org/TR/2001/REC-SVG-20010904/DTD/svg10.dtd">
<svg version="1.0" xmlns="http://www.w3.org/2000/svg"
 width="939.000000pt" height="1280.000000pt" viewBox="0 0 939.000000 1280.000000"
 preserveAspectRatio="xMidYMid meet">
<g transform="translate(0.000000,1280.000000) scale(0.100000,-0.100000)"
fill="#000000" stroke="none">
<path d="M4130 12195 c-277 -66 -517 -251 -639 -492 -42 -84 -88 -201 -96
-247 -6 -30 -20 -47 -74 -91 -104 -84 -237 -237 -261 -301 -38 -102 -21 -155
55 -170 47 -9 144 38 219 106 29 28 57 50 60 50 3 0 6 -17 6 -37 0 -24 13 -63
37 -108 l37 -70 6 -175 c6 -160 9 -183 39 -275 27 -84 46 -175 88 -422 4 -26
2 -33 -10 -33 -9 0 -27 -14 -39 -31 -13 -17 -54 -46 -93 -66 -38 -19 -83 -45
-100 -57 -16 -13 -68 -49 -115 -81 -150 -101 -253 -217 -370 -414 -76 -129
-127 -302 -159 -546 -11 -82 -29 -177 -41 -210 -30 -83 -36 -195 -15 -265 9
-30 17 -62 17 -70 2 -44 -53 -307 -88 -420 l-14 -45 53 -50 c95 -90 88 -61 98
-362 10 -318 21 -458 55 -693 47 -331 70 -400 175 -536 58 -75 113 -177 139
-257 11 -36 10 -40 -11 -63 -13 -14 -48 -41 -79 -61 -78 -51 -123 -96 -190
-190 -76 -106 -98 -151 -115 -230 -13 -60 -54 -133 -75 -133 -5 0 -17 -14 -26
-32 -18 -34 -17 -56 7 -308 7 -69 13 -154 13 -190 0 -79 -27 -282 -54 -416
-55 -265 -80 -504 -90 -864 -5 -168 -13 -324 -19 -347 -7 -26 -12 -215 -13
-486 l-3 -443 -62 -92 c-90 -133 -109 -212 -77 -309 25 -74 91 -202 135 -260
l39 -52 -26 -26 c-23 -23 -26 -33 -21 -71 2 -25 0 -47 -6 -51 -6 -3 -8 -48 -5
-118 l5 -112 -40 -14 c-22 -8 -49 -26 -60 -41 -17 -23 -19 -34 -11 -65 9 -35
7 -41 -27 -85 -54 -69 -79 -128 -93 -217 -12 -70 -18 -86 -64 -147 -71 -95
-126 -232 -119 -299 2 -27 9 -62 15 -77 l12 -28 3675 0 3675 0 0 1870 0 1870
-47 88 c-26 48 -57 101 -70 118 -13 18 -35 60 -48 94 -34 88 -77 151 -145 214
-108 100 -318 212 -487 260 -97 28 -143 45 -400 150 -89 36 -193 73 -230 80
-85 19 -146 40 -198 70 -22 13 -59 30 -82 36 -48 15 -51 21 -24 58 110 156
196 505 176 724 l-6 77 30 16 c59 30 65 50 65 234 1 235 -26 369 -93 458 -22
29 -76 75 -138 118 -113 77 -110 73 -138 219 -10 53 -11 87 -4 131 5 33 12
182 16 331 l6 270 35 25 c75 51 152 120 152 138 0 10 -11 52 -24 92 -13 41
-32 103 -41 139 -9 36 -47 160 -85 275 -101 309 -102 313 -105 520 -2 207 -18
287 -99 487 -26 62 -50 138 -55 169 -13 77 -53 172 -99 233 -58 76 -274 310
-378 408 -104 98 -118 107 -269 161 -191 68 -227 78 -345 93 -176 23 -343 59
-496 108 -172 54 -335 113 -346 124 -4 4 -13 45 -19 91 -11 80 -10 87 17 175
24 75 29 109 29 191 0 86 -3 105 -22 138 -19 32 -23 53 -23 125 0 106 -32 315
-61 397 -12 33 -42 101 -67 150 -39 77 -62 106 -156 201 -101 101 -120 115
-216 161 -193 93 -312 123 -520 129 -129 4 -157 1 -250 -21z"/>
</g>
</svg>
