<?xml version="1.0" encoding="UTF-8"?>
<!-- Generator: Adobe Illustrator 14.0.0, SVG Export Plug-In . SVG Version: 6.00 Build 43363)  -->
<!DOCTYPE svg PUBLIC "-//W3C//DTD SVG 1.1//EN" "http://www.w3.org/Graphics/SVG/1.1/DTD/svg11.dtd">
<svg version="1.1" id="svg2" xmlns:osb="http://www.openswatchbook.org/uri/2009/osb" xmlns:ns1="http://sozi.baierouge.fr" inkscape:version="0.48.0 r9654" xmlns:inkscape="http://www.inkscape.org/namespaces/inkscape" sodipodi:docname="tekniklogga.svg" xmlns:sodipodi="http://sodipodi.sourceforge.net/DTD/sodipodi-0.dtd" xmlns:cc="http://creativecommons.org/ns#" xmlns:dc="http://purl.org/dc/elements/1.1/" xmlns:svg="http://www.w3.org/2000/svg" xmlns:rdf="http://www.w3.org/1999/02/22-rdf-syntax-ns#" xmlns="http://www.w3.org/2000/svg" xmlns:xlink="http://www.w3.org/1999/xlink" x="0px" y="0px" width="800px" height="600px" viewBox="0 0 800 600" enable-background="new 0 0 800 600" xml:space="preserve">
<sodipodi:namedview inkscape:document-units="px" inkscape:pageopacity="0.0" inkscape:window-width="1280" inkscape:cy="675.39314" inkscape:cx="207.89597" showgrid="false" inkscape:window-x="0" inkscape:zoom="0.43838424" inkscape:pageshadow="2" bordercolor="#666666" inkscape:window-height="752" pagecolor="#ffffff" inkscape:current-layer="layer1" inkscape:window-y="0" borderopacity="1.0" id="base" inkscape:window-maximized="0">
	</sodipodi:namedview>
<g id="layer1" inkscape:groupmode="layer" inkscape:label="Layer 1">
	
		<path id="path2472" sodipodi:nodetypes="ccccccccccccccccc" inkscape:connector-curvature="0" fill="#4D4D4D" stroke="#000000" stroke-width="1.8332" d="   M401.277,330.461l7.199-23.142l-3.355-31.994l16.009-8.08l-52.352-28.112l-3.752-28.528l-18.68,0.75l5.298,40.276l21.506,14.242   l-1.481,14.706l-21.396,19.033l-2.452,26.785l30.582,5.366l2.064,2.716l29.409,211.119l16.155-2.268L401.277,330.461z"/>
	
		<path id="path2474" sodipodi:nodetypes="ccccccccccccccc" inkscape:connector-curvature="0" fill="#4D4D4D" stroke="#000000" stroke-width="1.8332" d="   M486.477,538.46l-30.083-223.788l-2.273-10.796l-15.214,1.146l-7.571-51.073l-51.359-20.559l-3.599-20.866l97.11-14.481   l3.222,43.962l-9.87,15.81l33.207,38.311l1.877,14.263l-21.374,6.228l23.437,218.689L486.477,538.46z"/>
	
		<path id="path2470" sodipodi:nodetypes="cccccscccc" inkscape:connector-curvature="0" opacity="0.7897" fill="#FFFF8C" stroke="#FFFFFF" stroke-width="1.8332" enable-background="new    " d="   M516.891,326.564c0,0-49.941,29.617-190.418,25.901c-2.782-8.169-4.904-36.973-4.904-36.973l12.053-5.712   c0,0-19.146-172.357-18.363-187.143c-3.963-18.427,27.961-66.41,68.3-71.296c53.759-6.509,85.861,41.312,85.206,44.274   c7.824,15.505,32.571,194.202,32.571,194.202l11.102,1.853l4.452,34.888L516.891,326.564z"/>
	
		<radialGradient id="path2991_1_" cx="341.9531" cy="119.9429" r="91.1436" gradientTransform="matrix(0.1683 1.2234 2.1853 -0.3006 65.7343 -319.7948)" gradientUnits="userSpaceOnUse">
		<stop offset="0" style="stop-color:#FFFFFF"/>
		<stop offset="1" style="stop-color:#FFFFFF;stop-opacity:0"/>
	</radialGradient>
	<path id="path2991" sodipodi:nodetypes="cccccscccc" inkscape:connector-curvature="0" fill="url(#path2991_1_)" d="   M515.625,326.023c0,0-48.983,29.309-186.889,25.431c-2.743-8.108-4.865-36.681-4.865-36.681l11.823-5.65   c0,0-19.031-170.985-18.283-185.647c-3.916-18.284,27.358-65.839,66.947-70.626c52.762-6.382,84.343,41.095,83.702,44.034   c7.703,15.39,32.244,192.676,32.244,192.676l10.898,1.854l4.418,34.612L515.625,326.023z"/>
	
		<path id="path2480" sodipodi:nodetypes="cscczcc" inkscape:connector-curvature="0" opacity="0.5952" fill="#CCCCCC" fill-opacity="0.6224" stroke="#CCCCCC" stroke-width="1.8332" stroke-linecap="round" stroke-linejoin="round" enable-background="new    " d="   M332.812,312.854c0,0-3.397,0.825-4.913,1.539l-4.83,2.278c0,0,95.242,4.218,189.744-23.578l-1.567-0.355   c-1.794-0.408-5.812-0.967-7.06-1.256l-171.378,21.372H332.812z"/>
</g>
<radialGradient id="path3796_1_" cx="675.293" cy="430.8682" r="96.0474" gradientTransform="matrix(-1.1676 1.5439 -1.3309 -1.1029 1761.6863 -390.877)" gradientUnits="userSpaceOnUse">
	<stop offset="0" style="stop-color:#FFFF00"/>
	<stop offset="1" style="stop-color:#FFFF02;stop-opacity:0"/>
</radialGradient>
<path id="path3796" sodipodi:cx="675.97021" sodipodi:cy="446.93576" sodipodi:type="arc" sodipodi:ry="73.222664" sodipodi:rx="95.546646" opacity="0.5952" fill="url(#path3796_1_)" enable-background="new    " d="  M594.954,145.702c17.865,91.062-53.44,181.538-159.265,202.083c-105.825,20.544-206.095-36.62-223.959-127.683  c-0.139-0.713-0.275-1.428-0.404-2.144C193.462,126.897,264.769,36.42,370.593,15.876C476.418-4.67,576.687,52.495,594.552,143.558  C594.691,144.271,594.825,144.986,594.954,145.702z"/>
</svg>