<?xml version="1.0" encoding="UTF-8" standalone="no"?>
<svg
   xmlns:dc="http://purl.org/dc/elements/1.1/"
   xmlns:cc="http://creativecommons.org/ns#"
   xmlns:rdf="http://www.w3.org/1999/02/22-rdf-syntax-ns#"
   xmlns:svg="http://www.w3.org/2000/svg"
   xmlns="http://www.w3.org/2000/svg"
   xmlns:sodipodi="http://sodipodi.sourceforge.net/DTD/sodipodi-0.dtd"
   xmlns:inkscape="http://www.inkscape.org/namespaces/inkscape"
   version="1.1"
   x="0"
   y="0"
   width="1550"
   height="1150"
   viewBox="0 0 1550 1150"
   id="svg2"
   inkscape:version="0.48.4 r9939"
   sodipodi:docname="OtherHealth.svg"
   inkscape:export-filename="E:\xampp\htdocs\scaleway\var\www\html\otherrealmdev\wp-content\themes\otherrealm\img\OtherHealth.png"
   inkscape:export-xdpi="200.00769"
   inkscape:export-ydpi="200.00769">
  <title
     id="title3913">Other Health</title>
  <metadata
     id="metadata10">
    <rdf:RDF>
      <cc:Work
         rdf:about="">
        <dc:format>image/svg+xml</dc:format>
        <dc:type
           rdf:resource="http://purl.org/dc/dcmitype/StillImage" />
        <dc:title>Other Health</dc:title>
      </cc:Work>
    </rdf:RDF>
  </metadata>
  <defs
     id="defs8">
    <marker
       inkscape:stockid="CurveOut"
       orient="auto"
       refY="0"
       refX="0"
       id="CurveOut"
       style="overflow:visible">
      <path
         id="path4022"
         d="m -5.4129913,-5.0456926 c 2.76,0 4.99999999,2.24 4.99999999,5.00000002 0,2.75999998 -2.23999999,4.99999998 -4.99999999,4.99999998"
         style="fill:none;stroke:#000000;stroke-width:1pt"
         transform="scale(0.6,0.6)"
         inkscape:connector-curvature="0" />
    </marker>
    <marker
       inkscape:stockid="DiamondLend"
       orient="auto"
       refY="0"
       refX="0"
       id="DiamondLend"
       style="overflow:visible">
      <path
         id="path3932"
         d="M 0,-7.0710768 -7.0710894,0 0,7.0710589 7.0710462,0 0,-7.0710768 z"
         style="fill-rule:evenodd;stroke:#000000;stroke-width:1pt"
         transform="matrix(0.8,0,0,0.8,-5.6,0)"
         inkscape:connector-curvature="0" />
    </marker>
    <marker
       inkscape:stockid="DotL"
       orient="auto"
       refY="0"
       refX="0"
       id="DotL"
       style="overflow:visible">
      <path
         id="path3896"
         d="m -2.5,-1 c 0,2.76 -2.24,5 -5,5 -2.76,0 -5,-2.24 -5,-5 0,-2.76 2.24,-5 5,-5 2.76,0 5,2.24 5,5 z"
         style="fill-rule:evenodd;stroke:#000000;stroke-width:1pt"
         transform="matrix(0.8,0,0,0.8,5.92,0.8)"
         inkscape:connector-curvature="0" />
    </marker>
    <marker
       inkscape:stockid="Torso"
       orient="auto"
       refY="0"
       refX="0"
       id="Torso"
       style="overflow:visible">
      <g
         id="g4047"
         transform="scale(0.7,0.7)">
        <path
           id="path4049"
           d="m -4.7792281,-3.239542 c 2.350374,0.3659393 5.30026732,1.9375477 5.03715532,3.62748546 C -0.00518779,2.0778819 -2.2126741,2.6176539 -4.5630471,2.2517169 -6.9134221,1.8857769 -8.521035,0.75201414 -8.257922,-0.93792336 -7.994809,-2.6278615 -7.1296041,-3.6054813 -4.7792281,-3.239542 z"
           style="fill:none;stroke:#000000;stroke-width:1.25"
           inkscape:connector-curvature="0" />
        <path
           id="path4051"
           d="M 4.4598789,0.08866574 C -2.5564571,-4.378332 5.2248769,-3.9061806 -0.84829578,-8.7197331"
           style="fill:none;stroke:#000000;stroke-width:1pt"
           inkscape:connector-curvature="0" />
        <path
           id="path4053"
           d="M 4.9298719,0.05752074 C -1.3872731,1.7494689 1.8027579,5.4782079 -4.9448731,7.5462725"
           style="fill:none;stroke:#000000;stroke-width:1pt"
           inkscape:connector-curvature="0" />
        <rect
           id="rect4055"
           transform="matrix(0.527536,-0.849533,0.887668,0.460484,0,0)"
           y="-1.7408575"
           x="-10.391706"
           height="2.7608147"
           width="2.6366582"
           style="fill-rule:evenodd;stroke-width:1pt" />
        <rect
           id="rect4057"
           transform="matrix(0.671205,-0.741272,0.790802,0.612072,0,0)"
           y="-7.9629307"
           x="4.9587269"
           height="2.8614161"
           width="2.7327356"
           style="fill-rule:evenodd;stroke-width:1pt" />
        <path
           id="path4059"
           transform="matrix(0,-1.109517,1.109517,0,25.96648,19.71619)"
           d="m 16.779951,-28.685045 a 0.60731727,0.60731727 0 1 0 -1.214634,0 0.60731727,0.60731727 0 1 0 1.214634,0 z"
           style="fill:#ff0000;fill-opacity:0.75;fill-rule:evenodd;stroke:#000000;stroke-width:1pt"
           inkscape:connector-curvature="0" />
        <path
           id="path4061"
           transform="matrix(0,-1.109517,1.109517,0,26.8245,16.99126)"
           d="m 16.779951,-28.685045 a 0.60731727,0.60731727 0 1 0 -1.214634,0 0.60731727,0.60731727 0 1 0 1.214634,0 z"
           style="fill:#ff0000;fill-opacity:0.75;fill-rule:evenodd;stroke:#000000;stroke-width:1pt"
           inkscape:connector-curvature="0" />
      </g>
    </marker>
    <marker
       inkscape:stockid="EmptyTriangleInL"
       orient="auto"
       refY="0"
       refX="0"
       id="EmptyTriangleInL"
       style="overflow:visible">
      <path
         id="path3986"
         d="m 5.77,0 -8.65,5 0,-10 8.65,5 z"
         style="fill:#ffffff;fill-rule:evenodd;stroke:#000000;stroke-width:1pt"
         transform="matrix(-0.8,0,0,-0.8,4.8,0)"
         inkscape:connector-curvature="0" />
    </marker>
    <marker
       inkscape:stockid="TriangleInL"
       orient="auto"
       refY="0"
       refX="0"
       id="TriangleInL"
       style="overflow:visible">
      <path
         id="path3968"
         d="m 5.77,0 -8.65,5 0,-10 8.65,5 z"
         style="fill-rule:evenodd;stroke:#000000;stroke-width:1pt"
         transform="scale(-0.8,-0.8)"
         inkscape:connector-curvature="0" />
    </marker>
    <marker
       inkscape:stockid="TriangleOutL"
       orient="auto"
       refY="0"
       refX="0"
       id="TriangleOutL"
       style="overflow:visible">
      <path
         id="path3977"
         d="m 5.77,0 -8.65,5 0,-10 8.65,5 z"
         style="fill-rule:evenodd;stroke:#000000;stroke-width:1pt"
         transform="scale(0.8,0.8)"
         inkscape:connector-curvature="0" />
    </marker>
    <filter
       id="filter3851"
       inkscape:label="Drop Shadow"
       color-interpolation-filters="sRGB">
      <feFlood
         id="feFlood3853"
         flood-opacity="1"
         flood-color="rgb(0,0,0)"
         result="flood" />
      <feComposite
         id="feComposite3855"
         in2="SourceGraphic"
         in="flood"
         operator="in"
         result="composite1" />
      <feGaussianBlur
         id="feGaussianBlur3857"
         stdDeviation="3"
         result="blur" />
      <feOffset
         id="feOffset3859"
         dx="17"
         dy="17"
         result="offset" />
      <feComposite
         id="feComposite3861"
         in2="offset"
         in="SourceGraphic"
         operator="over"
         result="composite2" />
    </filter>
    <marker
       inkscape:stockid="CurveOut"
       orient="auto"
       refY="0"
       refX="0"
       id="CurveOut-1"
       style="overflow:visible">
      <path
         inkscape:connector-curvature="0"
         id="path4022-7"
         d="m -5.4129913,-5.0456926 c 2.76,0 4.99999999,2.24 4.99999999,5.00000002 0,2.75999998 -2.23999999,4.99999998 -4.99999999,4.99999998"
         style="fill:none;stroke:#000000;stroke-width:1pt"
         transform="scale(0.6,0.6)" />
    </marker>
    <marker
       inkscape:stockid="CurveOut"
       orient="auto"
       refY="0"
       refX="0"
       id="CurveOut-0"
       style="overflow:visible">
      <path
         inkscape:connector-curvature="0"
         id="path4022-9"
         d="m -5.4129913,-5.0456926 c 2.76,0 4.99999999,2.24 4.99999999,5.00000002 0,2.75999998 -2.23999999,4.99999998 -4.99999999,4.99999998"
         style="fill:none;stroke:#000000;stroke-width:1pt"
         transform="scale(0.6,0.6)" />
    </marker>
    <filter
       id="filter6168"
       inkscape:label="Drop Shadow"
       color-interpolation-filters="sRGB">
      <feFlood
         id="feFlood6170"
         flood-opacity="1"
         flood-color="rgb(0,0,0)"
         result="flood" />
      <feComposite
         id="feComposite6172"
         in2="SourceGraphic"
         in="flood"
         operator="in"
         result="composite1" />
      <feGaussianBlur
         id="feGaussianBlur6174"
         stdDeviation="3"
         result="blur" />
      <feOffset
         id="feOffset6176"
         dx="5"
         dy="5"
         result="offset" />
      <feComposite
         id="feComposite6178"
         in2="offset"
         in="SourceGraphic"
         operator="over"
         result="fbSourceGraphic" />
      <feColorMatrix
         result="fbSourceGraphicAlpha"
         in="fbSourceGraphic"
         values="0 0 0 -1 0 0 0 0 -1 0 0 0 0 -1 0 0 0 0 1 0"
         id="feColorMatrix6180" />
      <feFlood
         id="feFlood6182"
         flood-opacity="1"
         flood-color="rgb(0,0,0)"
         result="flood"
         in="fbSourceGraphic" />
      <feComposite
         id="feComposite6184"
         in2="fbSourceGraphic"
         in="flood"
         operator="in"
         result="composite1" />
      <feGaussianBlur
         id="feGaussianBlur6186"
         stdDeviation="3"
         result="blur" />
      <feOffset
         id="feOffset6188"
         dx="5"
         dy="5"
         result="offset" />
      <feComposite
         id="feComposite6190"
         in2="offset"
         in="fbSourceGraphic"
         operator="over"
         result="composite2" />
    </filter>
    <marker
       inkscape:stockid="CurveOut"
       orient="auto"
       refY="0"
       refX="0"
       id="CurveOut-2"
       style="overflow:visible">
      <path
         inkscape:connector-curvature="0"
         id="path4022-2"
         d="m -5.4129913,-5.0456926 c 2.76,0 4.99999999,2.24 4.99999999,5.00000002 0,2.75999998 -2.23999999,4.99999998 -4.99999999,4.99999998"
         style="fill:none;stroke:#000000;stroke-width:1pt"
         transform="scale(0.6,0.6)" />
    </marker>
    <filter
       color-interpolation-filters="sRGB"
       id="filter6168-1"
       inkscape:label="Drop Shadow">
      <feFlood
         id="feFlood6170-6"
         flood-opacity="1"
         flood-color="rgb(0,0,0)"
         result="flood" />
      <feComposite
         id="feComposite6172-8"
         in2="SourceGraphic"
         in="flood"
         operator="in"
         result="composite1" />
      <feGaussianBlur
         id="feGaussianBlur6174-5"
         stdDeviation="3"
         result="blur" />
      <feOffset
         id="feOffset6176-7"
         dx="5"
         dy="5"
         result="offset" />
      <feComposite
         id="feComposite6178-6"
         in2="offset"
         in="SourceGraphic"
         operator="over"
         result="fbSourceGraphic" />
      <feColorMatrix
         result="fbSourceGraphicAlpha"
         in="fbSourceGraphic"
         values="0 0 0 -1 0 0 0 0 -1 0 0 0 0 -1 0 0 0 0 1 0"
         id="feColorMatrix6180-1" />
      <feFlood
         id="feFlood6182-8"
         flood-opacity="1"
         flood-color="rgb(0,0,0)"
         result="flood"
         in="fbSourceGraphic" />
      <feComposite
         id="feComposite6184-9"
         in2="fbSourceGraphic"
         in="flood"
         operator="in"
         result="composite1" />
      <feGaussianBlur
         id="feGaussianBlur6186-2"
         stdDeviation="3"
         result="blur" />
      <feOffset
         id="feOffset6188-7"
         dx="5"
         dy="5"
         result="offset" />
      <feComposite
         id="feComposite6190-9"
         in2="offset"
         in="fbSourceGraphic"
         operator="over"
         result="composite2" />
    </filter>
  </defs>
  <sodipodi:namedview
     pagecolor="#ffffff"
     bordercolor="#666666"
     borderopacity="1"
     objecttolerance="10"
     gridtolerance="10"
     guidetolerance="10"
     inkscape:pageopacity="0"
     inkscape:pageshadow="2"
     inkscape:window-width="1920"
     inkscape:window-height="1027"
     id="namedview6"
     showgrid="false"
     inkscape:zoom="1"
     inkscape:cx="1142.24"
     inkscape:cy="431.34579"
     inkscape:window-x="-8"
     inkscape:window-y="-8"
     inkscape:window-maximized="1"
     inkscape:current-layer="g6504" />
  <g
     id="OtherHealth"
     inkscape:label="#g6399"
     transform="translate(22.4094,-394.45088)">
    <g
       id="g6465">
      <g
         id="g6504">
        <g
           id="g3072"
           transform="translate(0,150)">
          <path
             style="fill:none;stroke:#000000;stroke-width:30;stroke-linecap:butt;stroke-linejoin:round;stroke-miterlimit:4;stroke-opacity:1;stroke-dasharray:none;stroke-dashoffset:0;marker-start:url(#CurveOut);filter:url(#filter6168)"
             d="m 1294.1725,683.44757 c 161.8915,-39.52619 339.3678,338.43043 -98.995,615.18293 -385.28354,243.2418 -408.70769,537.4011 -408.70769,537.4011"
             id="RightEar"
             inkscape:connector-curvature="0"
             sodipodi:nodetypes="csc"
             inkscape:label="#RightEar">
            <title
               id="title6374">RightEar</title>
          </path>
          <g
             id="g6461"
             transform="translate(6,340.6174)">
            <path
               transform="matrix(-1,0,0,1,1505.1812,0)"
               sodipodi:nodetypes="csc"
               inkscape:connector-curvature="0"
               id="LeftEar"
               d="m 1294.1725,342.83013 c 161.8915,-39.52619 339.3678,338.4304 -98.995,615.1829 C 809.89396,1201.2549 786.46981,1495.4142 786.46981,1495.4142"
               style="fill:none;stroke:#000000;stroke-width:30;stroke-linecap:butt;stroke-linejoin:round;stroke-miterlimit:4;stroke-opacity:1;stroke-dasharray:none;stroke-dashoffset:0;marker-start:url(#CurveOut);filter:url(#filter6168-1)">
              <title
                 id="title6372">Left Ear</title>
            </path>
          </g>
          <g
             transform="matrix(0.98688046,0,0,0.98688046,244.65171,338.58308)"
             style="font-size:1465.14440918px;font-style:normal;font-variant:normal;font-weight:normal;font-stretch:normal;text-align:center;line-height:125%;letter-spacing:0px;word-spacing:0px;text-anchor:middle;fill:#000080;fill-opacity:1;stroke:none;filter:url(#filter3851);font-family:Cambria Math;-inkscape-font-specification:Cambria Math"
             id="O">
            <path
               inkscape:connector-curvature="0"
               d="m 521.3666,4.729592 c 125.91019,9.923e-4 235.00897,47.813681 327.29667,143.438208 92.28597,95.62623 138.42939,214.9791 138.43039,358.05898 -10e-4,147.37326 -46.50212,269.70698 -139.5035,367.0015 -93.0031,97.29477 -205.55965,145.94212 -337.67,145.94212 -133.5422,0 -245.74105,-47.45501 -336.5969,-142.36511 C 82.467044,781.89544 37.039028,659.08479 37.039079,508.37298 37.039028,354.32361 89.501829,228.65136 194.42764,131.35584 285.52193,46.939292 394.50147,4.7305843 521.3666,4.729592 z M 507.77395,56.953978 C 420.97134,56.954918 351.3389,89.148 298.87641,153.53332 c -65.34035,80.12585 -98.01036,197.45175 -98.01015,351.97805 -2.1e-4,158.34277 33.86214,280.19954 101.58716,365.5707 51.98555,64.86323 120.66413,97.29478 206.03594,97.29475 91.09397,3e-5 166.3304,-35.5316 225.7095,-106.59498 59.3776,-71.06311 89.06678,-183.14273 89.06761,-336.2392 C 823.26564,359.56989 790.59562,235.80537 725.25633,154.24872 672.79279,89.386467 600.29873,56.954918 507.77395,56.953978 z"
               style="fill:#000080;font-family:Times New Roman;-inkscape-font-specification:Times New Roman"
               id="path6501" />
          </g>
          <g
             transform="translate(238,339.81653)"
             style="font-size:900px;font-style:normal;font-variant:normal;font-weight:normal;font-stretch:normal;text-align:center;line-height:125%;letter-spacing:0px;word-spacing:0px;text-anchor:middle;fill:#000000;fill-opacity:1;stroke:none;font-family:Times New Roman;-inkscape-font-specification:Times New Roman"
             id="flowRoot2988" />
          <g
             transform="translate(0,340.6174)"
             id="Health"
             inkscape:label="#g6376">
            <path
               d="m 751.65525,822.32173 c -1.75529,-2.0339 -2.64017,-8.1937 -2.86456,-19.9415 l -0.32212,-16.9974 -7.29984,-3.1469 c -16.22108,-6.9958 -22.96177,-17.7574 -23.33275,-37.2448 -0.19543,-10.2368 0.5266,-13.4687 4.29416,-19.2467 4.84423,-7.4283 4.84786,-7.4084 -3.77119,-16.5106 -11.93417,-12.6037 -15.32533,-43.7358 -5.89923,-54.1608 1.97426,-2.1823 3.57392,-4.7917 3.55582,-5.7979 -0.0198,-1.0061 -3.87611,-6.5814 -8.57017,-12.3902 -14.57438,-18.0361 -16.3948,-22.5836 -16.83634,-42.0764 -0.35649,-15.6981 0.0452,-17.9781 4.64881,-26.3312 2.77047,-5.0306 7.36681,-11.7134 10.21147,-14.8512 l 5.17178,-5.7038 -6.77869,-7.8084 c -3.72954,-4.2941 -8.96104,-12.2599 -11.62656,-17.70127 -4.2887,-8.76019 -4.90215,-12.27621 -5.35092,-30.69773 -0.43973,-18.04154 0.0271,-22.04794 3.51781,-30.16934 2.21493,-5.15189 6.36612,-11.69532 9.22525,-14.5418 5.03968,-5.01617 6.78774,-9.95813 3.49973,-9.89478 -0.88488,0.0163 -6.17791,-4.29776 -11.76408,-9.58898 C 675.87,412.84071 667.51697,387.10846 673.43972,372.30609 l 2.63838,-6.59592 -6.81126,-5.31836 c -6.68279,-5.21702 -10.41776,-10.82853 -15.98223,-24.02219 l -2.79038,-6.6122 -9.11485,3.10704 c -8.73485,2.97676 -9.52021,2.95505 -18.70565,-0.52297 -6.0078,-2.27645 -13.39631,-3.51782 -19.78776,-3.326 -7.17138,0.21533 -12.81726,-0.89938 -19.01328,-3.75308 -4.84604,-2.23483 -12.43362,-4.20548 -16.85806,-4.38281 -5.39073,-0.21352 -11.42569,-2.30902 -18.2822,-6.34258 -7.30708,-4.29956 -12.43725,-6.006 -17.92751,-5.96257 -8.68961,0.0705 -22.9473,-6.53258 -30.50411,-14.12558 l -4.80082,-4.82254 10.01784,-2.44294 c 12.20563,-2.97675 44.50665,-19.91625 66.29942,-34.7711 8.84343,-6.02772 27.33555,-18.6785 41.09199,-28.11365 30.69229,-21.04905 33.01037,-22.29585 47.11064,-25.34862 32.64664,-7.07003 58.76614,7.49166 63.49458,35.40084 1.82405,10.75615 -1.02422,20.2655 -8.75657,29.24283 -3.27172,3.79831 -5.93543,7.64548 -5.91734,8.54846 0.0163,0.90479 2.67276,3.78203 5.90287,6.39687 4.74652,3.84355 7.07907,4.53482 12.16039,3.61011 9.52743,-1.73177 10.96243,-4.31584 10.83214,-19.50185 -0.0868,-10.23499 -1.0604,-15.35068 -4.00822,-21.05085 -8.06892,-15.60945 -3.93584,-32.47475 9.8007,-39.99356 18.59887,-10.18071 39.04895,-0.76907 41.68008,19.18337 0.7365,5.58256 -0.18278,10.20785 -3.5866,18.0379 -4.02269,9.2542 -4.47871,12.44631 -3.75668,26.31493 l 0.82336,15.78498 8.51046,0.38544 c 7.82462,0.35468 19.48194,-3.64992 19.42403,-6.67554 -0.0126,-0.62611 -1.98148,-3.62098 -4.37736,-6.65745 -10.68559,-13.53747 -12.00477,-35.81161 -2.95143,-49.8612 11.23388,-17.43531 26.73475,-23.35084 49.83587,-19.02051 21.20828,3.97565 30.16028,9.09495 82.14412,46.97853 12.4445,9.06781 33.32524,22.361 46.40309,29.5378 22.62883,12.41735 24.23573,13.00546 33.26193,12.16219 8.7222,-0.81612 9.4913,-0.57362 9.56,3.00753 0.1013,5.3093 -11.1597,18.57535 -19.5923,23.08121 -3.79653,2.02854 -10.09388,3.74945 -13.99353,3.82364 -3.89964,0.0742 -11.68085,2.34341 -17.29055,5.04149 -8.30235,3.99374 -11.71705,4.70854 -18.36544,3.83994 -5.79428,-0.75641 -9.31029,-0.28591 -12.10609,1.62319 -4.4751,3.05639 -15.48641,5.44685 -30.03181,6.51811 -29.93772,2.20589 -39.97727,3.24096 -41.59322,4.28147 -0.98804,0.63698 -2.88447,3.90869 -4.21452,7.27271 -2.68362,6.78411 -9.88574,15.14438 -17.38646,20.18225 -4.5149,3.03106 -4.89672,4.23805 -4.69587,14.80057 0.30763,16.16679 -5.35635,28.71081 -20.1533,44.63331 l -11.79123,12.68698 7.63101,8.77104 c 11.35873,13.05433 15.04486,22.06966 15.38686,37.64291 0.53564,24.31173 -5.18444,38.12426 -21.9665,53.02977 l -8.4417,7.4989 5.66942,5.8377 c 13.41081,13.8071 14.60514,16.735 14.8639,36.4305 0.29135,22.2561 -2.52436,28.966 -18.03247,42.9812 -9.9328,8.9773 -13.32214,14.6268 -8.72037,14.54 1.04955,-0.02 4.07698,4.6053 6.72621,10.2784 8.35483,17.8895 5.05959,36.7182 -9.41165,53.8043 -3.79468,4.4805 -6.89087,8.5955 -6.88002,9.1456 0.009,0.5483 2.10998,3.9594 4.66873,7.5785 3.76393,5.3238 4.69224,8.7891 4.86958,18.1755 0.38906,20.4012 -12.01562,36.9896 -27.88745,37.2918 l -5.24418,0.1 -0.84688,20.3053 c -0.77631,18.6387 -1.97968,23.0522 -6.34077,23.2422 -0.62249,0.027 -2.27645,-1.2756 -3.67345,-2.8971 z m 4.76643,-46.9767 c -0.50306,-26.4199 -1.41871,-40.5889 -2.62027,-40.5653 -1.21061,0.024 -1.4911,14.3716 -0.81249,41.6221 0.58991,23.6332 1.7209,41.1463 2.62027,40.5672 0.87222,-0.5628 1.23776,-19.2919 0.81249,-41.624 z m -8.46702,-21.3186 c -0.52116,-15.9859 -2.96772,-19.1563 -7.57309,-9.8188 -3.29888,6.6882 -2.04303,18.8268 2.88085,27.8512 l 2.94598,5.398 1.10748,-4.5457 c 0.60983,-2.5008 0.89755,-10.9986 0.63878,-18.8847 z m 20.98571,16.782 c 2.48093,-4.8551 1.93625,-22.4696 -0.77451,-25.0808 -4.12402,-3.9684 -4.84062,-2.1081 -5.13377,13.3149 -0.21353,11.1923 0.30582,15.3815 1.90549,15.3471 1.20879,-0.025 3.00933,-1.6359 4.00279,-3.5812 z m 14.56894,-8.8543 c 11.26465,-19.0259 6.5543,-33.3759 -16.72234,-50.9505 -1.92902,-1.4567 -6.8746,-5.1881 -10.98959,-8.2933 -4.11498,-3.1035 -9.81878,-8.8833 -12.6743,-12.8427 -4.58368,-6.3534 -5.12835,-8.4525 -4.6271,-17.8678 l 0.56821,-10.6711 -7.61473,-4.618 c -4.18916,-2.5388 -8.93389,-4.5909 -10.54623,-4.5619 -7.70882,0.1483 -11.17236,23.5191 -5.4197,36.5824 5.51742,12.5296 22.40624,26.6515 39.92478,33.385 9.1565,3.5196 19.78236,14.5961 21.3766,22.2814 1.31918,6.3625 0.67859,15.5316 -1.70463,24.366 -1.09842,4.077 -0.91927,4.2869 1.73358,2.0249 1.62681,-1.3861 4.63977,-5.3618 6.69545,-8.8344 z m -52.11775,-1.2432 c -1.67024,-12.1223 -0.0253,-20.0827 5.40884,-26.1719 5.33465,-5.9771 4.52757,-9.7718 -2.42122,-11.3751 -4.04623,-0.9337 -5.70018,-0.1773 -9.16914,4.1928 -3.74946,4.7249 -4.1168,6.7045 -3.23011,17.3576 0.68582,8.2317 2.30903,14.055 5.14464,18.4541 2.28007,3.5359 4.44614,6.4222 4.8153,6.4149 0.37097,-0.01 0.12305,-3.9992 -0.54831,-8.8724 z m 52.87234,-58.6376 c 9.2361,-8.6516 13.76368,-18.8721 13.5411,-30.5729 -0.33115,-17.343 -11.30265,-31.8957 -34.30966,-45.5001 -13.27871,-7.8518 -26.12312,-18.7436 -29.53417,-25.0446 -4.20547,-7.7667 -3.64269,-19.862 1.27574,-27.4133 4.90398,-7.5333 5.04331,-7.3234 -11.51074,-17.249 -11.14702,-6.6809 -11.91247,-6.3788 -19.16889,7.5804 -6.95783,13.3836 -7.58034,27.1238 -1.97063,43.4969 3.67526,10.7253 6.24305,14.6467 15.68907,23.9679 6.85107,6.7588 15.82479,13.3239 22.80796,16.6843 22.513,10.8303 33.56592,24.9559 27.31381,34.9068 -1.57795,2.5099 -2.71799,8.2427 -2.62389,13.1882 0.2823,14.8676 6.75155,16.9522 18.4903,5.9554 z m -25.63091,-11.2755 c 0.10496,-14.9255 -1.76072,-21.2337 -6.25391,-21.1486 -2.44473,0.047 -1.4549,24.3135 1.09299,26.7673 3.8345,3.6916 5.10483,2.3072 5.16092,-5.6187 z m -11.87447,-16.9685 c -0.77811,-3.0021 -0.88126,-3.0002 -2.13529,0.04 -0.72565,1.7571 -0.67137,4.6054 0.11942,6.3336 1.36986,2.9894 1.473,2.9876 2.1353,-0.042 0.38364,-1.7481 0.32935,-4.5982 -0.11943,-6.3318 z m 46.39948,-44.322 c 12.56029,-7.9694 20.07187,-22.4388 20.88619,-40.2324 0.5483,-11.956 0.0742,-14.1745 -5.20255,-24.3986 -3.1921,-6.1852 -7.70339,-12.8969 -10.02509,-14.9128 -6.07114,-5.2749 -32.41864,-22.4714 -39.93925,-26.067 -3.51602,-1.68112 -11.55419,-6.32993 -17.86239,-10.33273 -9.85498,-6.25209 -12.00114,-8.61179 -15.25114,-16.77481 -6.17792,-15.51715 -5.15731,-26.32397 3.40744,-36.10296 4.89491,-5.58617 3.12152,-8.4055 -8.92486,-14.19435 l -10.37614,-4.98721 -6.21049,7.35776 c -9.64506,11.42931 -12.77925,20.90609 -12.45895,37.68453 0.23705,12.4463 1.09298,16.1505 6.0078,25.96205 6.70089,13.38182 19.17432,25.84802 34.32414,34.30782 22.94187,12.8083 41.52265,25.5803 44.86676,30.8371 1.92539,3.0256 3.56306,8.5883 3.63725,12.3595 0.14477,7.2129 -4.63976,18.9861 -9.37544,23.0721 -4.71758,4.0698 -3.04371,8.724 5.11569,14.2161 9.30486,6.2629 10.70729,6.4403 17.38103,2.2059 z m -32.76609,-26.9773 c 0.0886,-24.4691 -0.0254,-25.0011 -5.98067,-27.9381 l -5.48122,-2.7035 0.36192,18.9717 c 0.32754,17.2036 0.73831,19.3118 4.4009,22.598 2.22398,1.9923 4.62891,2.9967 5.34912,2.2294 0.71841,-0.7655 1.32643,-6.6864 1.34995,-13.1575 z m 11.41484,-5.9716 c 0.1701,-9.893 -3.51059,-8.6733 -3.93946,1.3047 -0.29858,6.994 0.0941,8.5611 1.72452,6.8819 1.16175,-1.1962 2.15702,-4.8805 2.21494,-8.1866 z m -27.63773,-10.3381 c -2.67456,-2.5733 -4.58548,4.8858 -2.79943,10.9208 1.40062,4.7321 1.45672,4.6922 3.05277,-2.1462 1.08213,-4.6397 0.99707,-7.5694 -0.25334,-8.7746 z m 56.33045,-59.5208 c 14.89284,-11.37501 21.79098,-26.22261 21.65164,-46.60755 -0.0562,-8.26436 -1.17081,-13.8632 -3.75127,-18.82506 -3.5323,-6.79318 -19.27385,-24.1742 -21.85069,-24.12534 -0.68763,0.0127 -6.53621,-3.07449 -12.99642,-6.86193 -6.58686,-3.86165 -21.22095,-9.69756 -33.31438,-13.28595 -24.36421,-7.22928 -40.57624,-15.72526 -48.80983,-25.58024 -4.4769,-5.35998 -5.80333,-8.88323 -6.59412,-17.52218 -1.04232,-11.39492 0.31487,-13.20631 5.6459,-7.5369 7.4229,7.89521 25.5549,5.25321 33.1841,-4.83339 4.01364,-5.3075 3.56487,-9.10039 -1.30109,-11.00768 -13.31128,-5.21703 -29.02207,-3.16134 -40.90377,5.35092 -15.04667,10.77968 -19.05851,28.51357 -10.19519,45.06943 8.35665,15.61126 19.99226,23.94619 59.44655,42.58669 33.21305,15.69269 39.19553,19.3969 44.42522,27.50925 7.18404,11.14522 3.136,28.7072 -9.33744,40.50023 -6.94698,6.56698 -7.55681,9.39716 -2.87541,13.3348 4.31041,3.6264 13.59175,8.23 16.65538,8.2626 1.36081,0.013 6.27381,-2.8791 10.92082,-6.4277 z M 708.13301,356.27681 c -2.28369,-2.19863 0.5845,-4.33937 5.94991,-4.44251 2.92609,-0.0562 5.33646,0.71297 5.35455,1.70824 0.0199,0.99528 -1.12013,1.8313 -2.52979,1.85845 -1.41148,0.0271 -3.68613,0.50305 -5.05236,1.05679 -1.36805,0.55554 -3.0419,0.47411 -3.72231,-0.18097 z m 54.64212,137.30561 c 0.85593,-23.62229 0.82155,-23.88467 -3.45088,-27.05325 -5.59522,-4.14937 -10.72176,-5.7038 -12.3359,-3.73859 -0.70575,0.85955 -0.60803,12.37029 0.21714,25.58204 1.45129,23.27303 1.6413,24.09277 6.06934,26.40179 8.37293,4.36834 8.59008,3.88337 9.5003,-21.19199 z m 14.62322,8.53217 c 4.59815,-7.31433 4.80806,-14.37169 0.62069,-20.81924 -2.10816,-3.24457 -4.62348,-5.38893 -5.5916,-4.76462 -2.29998,1.48385 -1.7734,29.8798 0.55373,29.83638 0.97174,-0.0199 2.96047,-1.93264 4.41718,-4.25252 z m -35.49312,-14.16178 c -0.2642,-13.88854 -0.83603,-17.17836 -2.97858,-17.13675 -3.08895,0.058 -5.39073,4.10051 -6.97955,12.25992 -0.7944,4.07519 0.004,8.25713 2.66552,13.97721 5.84494,12.56211 7.65995,10.29471 7.29261,-9.10038 z m 60.96116,-60.22105 c 17.02636,-9.23973 31.33472,-30.57831 32.41503,-48.33935 0.61526,-10.10832 0.24792,-11.37323 -5.22063,-17.99989 -9.07324,-10.99684 -18.65317,-15.66375 -31.82149,-15.49908 -11.99933,0.14839 -21.46343,3.84174 -22.30309,8.70409 -0.28772,1.6612 1.89644,5.62418 4.8533,8.80904 4.685,5.04692 6.75878,5.86485 16.1487,6.3643 9.5763,0.5103 11.38589,0.0379 16.28623,-4.2471 3.03105,-2.65103 6.01505,-4.82976 6.63031,-4.84244 1.53091,-0.029 -0.53021,14.54904 -2.69266,19.0549 -6.26114,13.03984 -22.60348,27.13829 -37.43661,32.29378 -9.18002,3.19211 -8.01464,6.58145 4.41718,12.84804 11.17236,5.63322 13.07061,5.92275 18.72373,2.85371 z m -6.03675,-73.28986 c -5.12836,-1.23594 -3.71508,-4.11137 2.07377,-4.22174 6.02049,-0.11401 8.83437,2.5135 4.55472,4.24889 -1.55624,0.63154 -2.96952,1.0568 -3.13962,0.94459 -0.1683,-0.11219 -1.73901,-0.5501 -3.48887,-0.97174 z m -32.58513,57.52298 c 0.62611,-6.60859 1.06041,-19.225 2.13169,-62.03064 0.64964,-25.8933 1.47661,-48.05523 1.83853,-49.24956 0.36372,-1.19252 0.62068,-11.7858 0.57364,-23.53903 l -0.0851,-21.37116 -12.41914,-1.00975 c -6.82937,-0.55735 -12.66527,-0.7564 -12.96747,-0.44334 -0.30039,0.31487 -0.27506,34.82901 0.0562,76.7009 0.47592,59.74513 1.09843,76.43852 2.89895,77.55503 3.0021,1.86206 12.60917,5.26046 15.49363,5.48123 1.24501,0.0941 2.36151,-0.84689 2.47913,-2.09368 z m 20.07006,-7.03565 c 8.18293,-3.94852 20.87895,-15.18239 20.81742,-18.41973 -0.0217,-1.10928 -1.26127,-1.99416 -2.75237,-1.96702 -1.4929,0.029 -2.52798,-0.88307 -2.30179,-2.02674 0.22801,-1.14365 -2.42121,-2.79037 -5.88657,-3.65897 -3.46353,-0.87041 -9.22524,-4.0607 -12.80278,-7.08813 l -6.50545,-5.50836 -0.32753,11.42932 c -0.17915,6.28468 0.0851,11.8256 0.58812,12.31057 0.50487,0.48317 4.59995,-0.4542 9.10218,-2.08463 11.1416,-4.03357 10.39966,-1.23775 -1.16175,4.37375 -9.14381,4.44071 -11.71703,8.17027 -9.46592,13.72026 1.3409,3.30248 1.68474,3.2681 10.69644,-1.08032 z m -44.49216,-3.23735 c -1.32825,-3.25182 -23.38161,-15.51355 -27.75175,-15.43031 -3.13963,0.0598 -2.92609,0.68947 1.85844,5.49752 11.27912,11.33341 29.28807,18.24057 25.89331,9.93279 z m -1.23052,-11.86363 c 1.2486,-5.47759 1.34813,-22.19632 0.13209,-22.17278 -0.63697,0.0109 -3.71325,2.03216 -6.83478,4.48956 -3.12333,2.45742 -8.44171,5.64771 -11.82201,7.08815 l -6.14351,2.61846 10.81948,5.33282 c 13.35109,6.57965 12.96746,6.50545 13.84873,2.64379 z m 108.62553,-39.58458 c 4.18738,-4.53842 8.92486,-10.34175 10.52996,-12.89507 2.87362,-4.57281 2.78313,-4.7791 -6.04763,-13.94825 -4.92929,-5.1193 -9.59621,-9.56726 -10.36889,-9.88393 -0.7727,-0.31668 -5.02702,2.73427 -9.45326,6.7823 -11.9758,10.9534 -19.39328,14.10569 -34.06536,14.47846 -6.96508,0.17735 -14.70647,-0.0471 -17.20369,-0.49762 -4.15118,-0.74736 -4.52938,-0.27506 -4.419,5.51378 0.1321,6.97775 -0.10133,6.92527 14.35902,3.22106 11.43295,-2.9279 27.10392,1.13099 37.06023,9.59983 3.76936,3.20656 8.00922,5.84132 9.4243,5.85581 1.41509,0.0144 5.99876,-3.68793 10.18432,-8.22637 z m -160.52433,3.21563 c 1.12194,-1.40604 6.23221,-4.45519 11.35694,-6.77507 7.64366,-3.46173 11.35512,-4.06794 20.6817,-3.37488 6.2521,0.46326 12.90774,1.63045 14.79333,2.59314 4.27966,2.18778 5.69113,0.78899 5.5717,-5.51921 l -0.0941,-4.93836 -14.92542,0.33115 c -11.43293,0.25516 -16.89244,-0.52477 -23.33454,-3.33324 -7.81378,-3.40564 -20.05017,-14.49113 -24.8546,-22.51842 -1.91273,-3.19392 -2.66552,-2.7723 -10.29833,5.74179 -4.52938,5.05235 -8.21368,10.23861 -8.19017,11.52341 0.0959,5.02159 7.79206,16.44909 15.17153,22.52567 8.44533,6.95421 11.01493,7.63643 14.12197,3.74402 z m 201.36296,-24.13257 c 4.30681,-1.74805 3.4165,-3.71507 -3.55221,-7.84092 -3.48526,-2.06292 -10.2006,-9.33201 -14.92542,-16.15231 -7.669,-11.07284 -9.21258,-12.38841 -14.42056,-12.29069 -12.6924,0.24249 -13.16831,7.90607 -1.25404,20.1696 9.06058,9.32297 15.97318,13.61891 25.24186,15.69087 3.00028,0.66955 5.5916,1.29929 5.7617,1.39701 0.16829,0.0995 1.58518,-0.3384 3.14867,-0.97356 z m -155.34711,-4.18376 c 4.89492,-1.0767 5.93723,-5.52827 5.61693,-23.96608 l -0.25876,-14.90009 -10.81586,1.33908 -10.81587,1.33909 -8.31503,-8.00377 c -10.3309,-9.94546 -10.90815,-15.16068 -2.48637,-22.48767 8.10331,-7.05013 11.70799,-15.13895 11.5035,-25.81911 -0.14656,-7.7432 -1.07125,-9.86764 -7.09716,-16.30433 -9.17639,-9.8025 -21.03457,-13.90843 -37.98855,-13.15384 -11.08368,0.49221 -14.90371,1.64491 -27.89287,8.41817 -8.27884,4.31585 -19.57606,11.00226 -25.10613,14.85847 -5.53009,3.85622 -16.78386,11.70256 -25.00842,17.43531 -32.58332,22.71207 -49.51738,32.59418 -81.1941,47.37665 l -7.15326,3.34049 5.1772,2.5877 c 9.47315,4.73568 23.49017,4.70492 35.9781,-0.0796 21.09247,-8.0816 77.21845,-44.8758 82.37394,-54.00152 4.22176,-7.47357 6.55791,-5.6079 6.76784,5.4034 0.40171,21.07982 19.97234,39.21 41.91532,38.83 3.23372,-0.0562 5.89562,0.71297 5.91372,1.70825 0.0199,0.99526 -0.88671,1.82586 -2.01226,1.84757 -3.28078,0.0634 -0.38363,13.59539 4.24528,19.84387 5.35093,7.22023 16.74766,14.01883 26.23349,15.65288 6.99584,1.20336 10.05404,1.01518 20.41932,-1.2649 z m 197.89579,-2.72522 c -0.0181,-0.97174 -2.29817,-3.08534 -5.06501,-4.69587 -13.067,-7.60567 -22.1529,-14.09483 -29.0673,-20.76132 -15.1263,-14.58522 -14.49656,-14.26855 -20.72694,-10.425 -3.01658,1.85844 -5.45951,4.71035 -5.42875,6.33354 0.0886,4.65063 21.06172,22.72472 31.68937,27.31201 9.83147,4.24347 28.6656,5.71645 28.59863,2.23664 z m -285.84868,-0.11944 c 3.5124,-1.86206 10.18071,-6.9144 14.81685,-11.22484 13.73293,-12.77019 14.19436,-16.88338 2.12084,-18.91192 -6.62307,-1.11289 -7.16052,-0.77812 -18.77803,11.65371 -6.57783,7.03927 -14.17264,14.29207 -16.87435,16.11613 -5.67665,3.8345 -6.1761,5.9318 -1.67567,7.04107 4.62892,1.14004 13.07242,-0.7944 20.39036,-4.67415 z m 163.68386,0.40353 c 10.54625,-2.86999 21.34582,-12.76658 25.00118,-22.90929 2.37959,-6.60497 2.49722,-8.67513 0.61888,-10.85205 -1.27576,-1.48025 -2.0177,-2.72524 -1.64854,-2.76505 0.37097,-0.0416 6.90174,-0.36915 14.51465,-0.72925 12.32144,-0.58269 14.69018,-1.29386 21.59554,-6.48735 12.00476,-9.03163 18.21525,-24.38049 15.02315,-37.13261 -1.54177,-6.15439 4.50585,-2.2095 7.3686,4.80806 3.14506,7.70881 17.63258,20.08092 47.67886,40.71195 24.37686,16.73864 53.81694,23.29112 66.28497,14.75353 6.7262,-4.6054 6.1037,-7.44825 -2.1353,-9.74642 -17.71039,-4.94196 -51.87529,-24.89622 -89.64486,-52.36023 -48.61802,-35.35197 -65.43807,-41.82666 -92.8478,-35.73561 -5.76714,1.28119 -16.67167,11.78581 -19.40414,18.69479 -5.00892,12.65621 -1.32281,27.30115 9.59801,38.1333 l 6.89089,6.83479 -3.9467,6.04219 c -8.05806,12.33591 -18.47401,16.37309 -32.32998,12.53135 l -5.00349,-1.38794 0.34564,18.23696 0.34743,18.23694 5.91191,1.58701 c 8.22273,2.20407 16.52148,2.05569 25.7811,-0.46507 z m 151.78043,-5.60788 c 3.04553,-1.23414 3.87973,-6.2141 1.03146,-6.15981 -3.50154,0.0669 -39.97365,-24.61574 -53.05873,-35.90752 -14.01702,-12.09524 -17.40635,-13.637 -19.18519,-8.72218 -2.65104,7.32337 -0.68401,12.04818 8.80724,21.16305 22.13661,21.25896 50.19597,34.5811 62.40522,29.62646 z m -346.43165,-0.40354 c 4.44977,-2.37597 14.3156,-9.15648 21.92489,-15.06838 l 13.83424,-10.74891 -5.93723,-5.89561 c -3.26449,-3.24278 -6.58145,-5.88295 -7.37043,-5.86848 -0.78897,0.0144 -5.64589,3.97565 -10.79415,8.8018 -11.936,11.19407 -25.11155,21.13411 -34.80729,26.26427 -9.12028,4.82434 -9.59801,7.12431 -1.65939,7.97662 8.69323,0.93376 15.73793,-0.61705 24.80936,-5.46131 z m -30.06438,-9.19268 c 9.63964,-4.83157 49.18261,-30.97459 49.15365,-32.49645 -0.0506,-2.69989 -6.40592,-17.42445 -7.51158,-17.40455 -0.77449,0.0144 -11.74236,8.08341 -24.37504,17.92933 -19.9633,15.56421 -44.62971,30.44077 -50.65923,30.55659 -4.29234,0.0815 -1.473,3.65535 4.05165,5.1374 10.46299,2.80665 18.29667,1.8132 29.34055,-3.72232 z m 189.87574,-67.14269 c 12.62544,-15.72344 2.53883,-36.30382 -17.60543,-35.92019 -7.80472,0.14839 -9.77535,0.99346 -15.0177,6.43849 -5.16998,5.37265 -6.01144,7.50071 -5.87029,14.87114 0.14658,7.73959 0.93374,9.30849 7.82464,15.62031 7.27451,6.65925 8.12682,6.96146 16.78929,5.96256 7.51337,-0.86679 9.96355,-2.09729 13.87949,-6.97231 z m -17.25436,-1.26127 c -0.6406,-0.99346 0.5121,-2.37236 2.56236,-3.06543 5.51922,-1.86749 10.10832,-12.92404 7.20938,-17.3738 -4.64158,-7.12794 -0.27868,-10.22233 5.60065,-3.97022 4.35385,4.63072 4.01908,13.65691 -0.71297,19.15985 -4.36471,5.07587 -12.81908,8.10329 -14.65942,5.2496 z"
               id="path16479"
               inkscape:connector-curvature="0"
               style="fill:#000000" />
            <path
               inkscape:connector-curvature="0"
               id="path3863"
               d="m 777.85393,627.09623 c -9.03182,-5.9539 -9.57883,-8.5702 -3.56039,-17.0289 4.42724,-6.2223 5.40645,-9.7674 5.40645,-19.5734 0,-11.3244 -0.40227,-12.3227 -7.40462,-18.3757 -4.07254,-3.5205 -17.27233,-12.4315 -29.33287,-19.8024 -25.42634,-15.5394 -38.21567,-27.6268 -45.48133,-42.98513 -4.48329,-9.47689 -5.07459,-12.98481 -4.40788,-26.14972 0.79429,-15.6839 3.93603,-24.50368 12.43069,-34.8965 4.64623,-5.68444 4.66126,-5.68741 11.42418,-2.25882 13.50407,6.84615 14.10061,8.12075 8.62257,18.42353 -5.91878,11.13169 -6.0632,17.13658 -0.75345,31.32817 4.4818,11.97868 3.38951,11.08262 42.87623,35.17337 27.92815,17.0389 33.64953,21.9805 39.84602,34.4152 9.47746,19.0188 5.53457,43.4485 -9.34272,57.8864 -9.00569,8.7397 -12.02877,9.3115 -20.32288,3.8439 l 0,0 z"
               style="fill:#800000;fill-opacity:1;stroke:none" />
            <path
               inkscape:connector-curvature="0"
               id="path3865"
               d="m 767.57746,700.02663 c -0.71709,-3.8224 -0.30787,-9.8067 0.90937,-13.2984 1.21724,-3.4918 2.21316,-8.4331 2.21316,-10.9807 0,-6.7995 -10.65937,-17.796 -26.19953,-27.0283 -29.17243,-17.331 -41.63015,-33.8979 -43.32738,-57.6189 -0.76828,-10.7377 -0.098,-15.2544 3.50777,-23.6361 6.69544,-15.564 8.11984,-16.1272 21.01861,-8.3097 6.05029,3.6669 11.00053,7.4216 11.00053,8.3438 0,0.9222 -1.45019,4.4811 -3.22263,7.9086 -2.19153,4.2379 -2.92251,9.3554 -2.2846,15.9942 1.16083,12.0811 5.72654,17.2318 30.88078,34.8375 26.12494,18.2851 34.62645,29.5894 34.62645,46.0421 0,9.8894 -6.88446,23.6413 -14.89352,29.7501 -9.04426,6.8983 -12.65428,6.3899 -14.22901,-2.0042 z"
               style="fill:#800000;fill-opacity:1;stroke:none" />
            <path
               inkscape:connector-curvature="0"
               id="path3867"
               d="m 777.90007,756.46833 c 2.0205,-17.1914 -4.13847,-25.8666 -26.69228,-37.5974 -27.25412,-14.1755 -37.47034,-28.0962 -36.12502,-49.2241 1.05199,-16.5211 2.72699,-18.0226 13.99718,-12.5471 l 8.95337,4.3499 0,11.4865 c 0,14.1588 3.69401,19.9023 22.39945,34.8271 26.64129,21.2566 31.89808,31.4282 24.67802,47.7503 -5.97667,13.5113 -8.72933,13.8757 -7.21072,0.9548 l 0,0 z"
               style="fill:#800000;fill-opacity:1;stroke:none" />
            <path
               inkscape:connector-curvature="0"
               id="path3869"
               d="m 727.0576,760.01103 c -7.5544,-16.7186 -4.05766,-35.0346 6.6885,-35.0346 5.83127,0 6.29597,3.2138 1.45389,10.055 -2.07755,2.9353 -3.90642,10.2045 -4.5,17.8862 -0.97586,12.6289 -1.06378,12.8001 -3.64239,7.0934 z"
               style="fill:#800000;fill-opacity:1;stroke:none" />
            <path
               inkscape:connector-curvature="0"
               id="path3871"
               d="m 779.41821,527.13103 c -9.10641,-5.55277 -9.4467,-7.17999 -3.03959,-14.53488 8.82828,-10.13422 12.32137,-18.45972 12.32137,-29.36697 0,-15.19438 -4.7954,-19.40107 -45.64692,-40.04307 -41.35155,-20.89466 -50.45225,-27.07348 -58.44928,-39.68349 -6.80185,-10.72541 -7.94922,-24.76945 -2.83205,-34.66496 6.93573,-13.41221 25.95107,-21.72952 43.06751,-18.83772 10.16914,1.71807 11.94435,5.80196 5.37684,12.36947 -6.73467,6.73467 -20.78472,8.48888 -28.34013,3.53839 -7.46802,-4.89323 -9.62826,-1.99904 -7.4021,9.917 3.54263,18.96278 14.94567,27.77414 54.2449,41.91614 33.45681,12.03957 43.95942,17.28945 55.06215,27.52359 12.95586,11.9423 17.54142,22.81778 16.57026,39.29934 -1.00771,17.1019 -7.39282,30.11797 -19.34098,39.42666 -10.3086,8.0314 -12.94275,8.4145 -21.59198,3.1405 l 0,0 z M 719.19999,353.97641 c -0.7429,-2.9716 -11.02565,-2.42306 -12.04756,0.6427 -0.63892,1.91675 0.96347,2.46615 5.83333,2 3.69283,-0.35348 6.48923,-1.5427 6.21423,-2.6427 z"
               style="fill:#800000;fill-opacity:1;stroke:none" />
            <path
               inkscape:connector-curvature="0"
               id="path3873"
               d="m 787.68329,425.12241 c -13.97717,-6.22686 -14.43414,-8.78694 -2.55556,-14.31722 20.88971,-9.72557 35.52569,-28.80492 35.56111,-46.35715 l 0.0112,-5.52838 -8.00761,5.29918 c -6.86957,4.54607 -9.35665,5.11996 -17.5,4.03809 -6.92405,-0.91988 -10.66113,-2.69951 -13.81198,-6.57738 -5.26611,-6.48122 -4.28198,-9.75353 3.77839,-12.56339 14.931,-5.20497 31.82703,-0.17588 43.29656,12.88719 6.15201,7.00674 6.62557,8.46108 5.59328,17.17717 -1.97979,16.7162 -12.92478,34.10641 -27.8788,44.29589 -9.33162,6.35845 -8.1457,6.25286 -18.48654,1.646 z m 16.99998,-70.09334 c 4.15311,-2.62569 -0.083,-6.60189 -6.09595,-5.72199 -8.29041,1.21316 -7.05009,5.56153 2.11267,7.4067 0.55,0.11076 2.34248,-0.64736 3.98328,-1.68471 z"
               style="fill:#800000;fill-opacity:1;stroke:none" />
            <path
               inkscape:connector-curvature="0"
               id="path3875"
               d="m 753.49765,410.11983 c -4.93947,-2.15026 -6.46207,-4.27223 -7.47799,-10.42171 -0.7016,-4.24694 -1.28555,-38.67062 -1.29766,-76.49707 l -0.022,-68.77536 11.39753,1.33955 c 6.26864,0.73676 11.64918,1.59121 11.95676,1.89879 0.77639,0.7764 -3.1923,123.01732 -4.57164,140.81238 -0.61816,7.975 -1.72214,14.46477 -2.45329,14.42172 -0.73115,-0.0431 -4.12041,-1.29329 -7.5317,-2.7783 z"
               style="fill:#800000;fill-opacity:1;stroke:none" />
            <path
               inkscape:connector-curvature="0"
               id="path3877"
               d="m 752.97731,513.19013 c -1.84447,-1.16862 -3.22752,-8.70308 -4.28781,-23.35876 -2.06013,-28.47584 -0.70241,-31.74967 9.1014,-21.94587 5.33959,5.33959 5.63321,7.92112 3.61562,31.78916 -1.27373,15.06814 -2.60627,17.20476 -8.42921,13.51547 z"
               style="fill:#800000;fill-opacity:1;stroke:none" />
            <path
               inkscape:connector-curvature="0"
               id="path3879"
               d="m 754.19999,611.53953 c -2.73138,-3.0264 -3.5,-7.467 -3.5,-20.2206 0,-8.9884 0.7898,-16.3425 1.75511,-16.3425 4.74742,0 6.37835,6.4454 5.82564,23.0228 -0.55849,16.7508 -0.71488,17.2697 -4.08075,13.5403 z"
               style="fill:#800000;fill-opacity:1;stroke:none" />
            <path
               inkscape:connector-curvature="0"
               id="path3881"
               d="m 754.19999,694.31283 c -0.825,-2.015 -1.47263,-8.315 -1.43918,-14 0.0471,-8.012 0.52033,-9.5474 2.10422,-6.8278 1.12387,1.9298 1.7715,8.2298 1.43918,14 -0.40476,7.028 -1.09939,9.282 -2.10422,6.8278 z"
               style="fill:#800000;fill-opacity:1;stroke:none" />
            <path
               inkscape:connector-curvature="0"
               id="path3883"
               d="m 754.62076,795.40993 c -0.5787,-6.6114 -0.96055,-21.8849 -0.84855,-33.9411 l 0.20363,-21.9203 1.21667,24.7487 c 0.66917,13.6118 1.05102,28.8854 0.84855,33.9412 l -0.36812,9.1924 -1.05218,-12.0209 z"
               style="fill:#800000;fill-opacity:1;stroke:none" />
            <path
               inkscape:connector-curvature="0"
               id="path3885"
               d="m 706.45547,323.93492 c -7.8956,-2.94243 -16.48862,-9.32504 -20.18193,-14.99044 -4.20515,-6.45056 -5.779,-14.8744 -3.33028,-17.82494 2.43874,-2.9385 -0.34204,-4.77508 -7.27501,-4.8048 -12.96176,-0.0556 -28.12693,-9.98044 -34.51629,-22.58924 -1.85423,-3.65916 -3.82159,-10.63277 -4.37191,-15.49692 -0.57014,-5.03938 -1.77515,-9.14114 -2.80114,-9.53485 -0.99032,-0.38001 -4.51087,2.24939 -7.82346,5.84312 -10.18204,11.04622 -49.90985,37.52718 -72.09601,48.05631 -11.06664,5.25203 -24.57152,8.32326 -30.9154,7.03067 -6.79278,-1.38406 -14.25137,-3.87975 -14.25137,-4.76861 0,-0.48654 8.41121,-4.99856 18.69158,-10.02669 21.14635,-10.34269 43.54585,-23.98891 73.33305,-44.67595 23.15558,-16.08142 36.12959,-24.13342 49.39673,-30.65688 8.64892,-4.25268 10.11211,-4.5199 24.74874,-4.5199 14.12946,0 16.20493,0.34514 22.62741,3.76281 8.2704,4.40102 15.42939,11.46119 17.69464,17.45039 3.35484,8.86997 -1.28243,22.88991 -10.49964,31.74368 -7.61407,7.31384 -7.10034,12.58069 2.26331,23.20388 l 7.29696,8.27852 11.95832,-0.99612 11.95831,-0.99613 -0.62958,16.4478 c -0.48399,12.64427 -1.15806,16.97629 -2.91497,18.73319 -3.17154,3.17154 -21.15833,4.01571 -28.36206,1.3311 l 0,0 z"
               style="fill:#800000;fill-opacity:1;stroke:none" />
            <path
               inkscape:connector-curvature="0"
               id="path3907"
               d="m 784.31077,322.79463 -6.71752,-1.45219 0,-13.10526 c 0,-7.2079 -0.40684,-15.13947 -0.90409,-17.62572 l -0.90409,-4.52045 5.50028,1.09127 c 8.56931,1.70017 17.00795,0.9879 21.79806,-1.8399 4.36331,-2.57584 14.10782,-13.88974 14.10782,-16.37995 0,-0.72056 -2.85334,-4.64999 -6.34076,-8.73206 -7.89157,-9.23718 -10.99669,-16.44363 -11.01762,-25.56997 -0.038,-16.57019 12.78431,-29.55253 30.84623,-31.23121 19.58218,-1.81997 35.68605,5.15355 74.72389,32.35798 47.77434,33.29268 73.24649,48.6144 92.51685,55.64971 11.66778,4.25971 12.68808,6.68466 4.52928,10.7639 -9.89498,4.94723 -28.59699,2.35927 -47.37205,-6.55527 -10.13165,-4.81059 -36.52365,-23.00524 -49.90239,-34.40273 -4.11179,-3.50287 -10.04716,-10.15508 -13.1897,-14.78269 -6.70621,-9.87533 -9.23684,-10.09232 -8.55465,-0.73354 0.93934,12.88667 -7.08232,27.62886 -19.06249,35.03301 -4.08917,2.52725 -7.8702,3.28571 -19.06753,3.8249 -7.68181,0.36991 -13.96692,0.91431 -13.96692,1.20978 0,0.29547 0.7541,1.74473 1.67578,3.22057 3.55515,5.69271 -4.49659,20.77211 -14.8067,27.73018 -8.90263,6.00819 -22.69506,8.47013 -33.89168,6.04964 z"
               style="fill:#800000;fill-opacity:1;stroke:none" />
            <path
               inkscape:connector-curvature="0"
               id="path3012"
               d="m 554.94337,310.62797 c -4.88859,-1.47097 -5.14331,-3.98532 -0.52,-5.13279 6.39809,-1.58796 26.47545,-14.19729 49.10154,-30.8376 19.72424,-14.50616 21.23473,-15.35312 23.02199,-12.90888 2.88856,3.95033 5.39423,13.34002 3.85565,14.44858 -11.65009,8.39401 -41.78755,27.67689 -48.02974,30.73091 -8.44601,4.13225 -20.5613,5.7664 -27.42944,3.69978 l 0,0 z"
               style="fill:#800000;fill-opacity:1;stroke:none" />
            <path
               inkscape:connector-curvature="0"
               id="path3014"
               d="m 586.11825,320.50838 c -1.56659,-1.06828 -1.28603,-1.75048 1.41421,-3.43877 1.85268,-1.15836 6.88433,-4.31034 11.18145,-7.0044 4.29712,-2.69406 14.27414,-10.40732 22.17115,-17.14059 7.89701,-6.73326 14.91166,-12.2423 15.58812,-12.2423 0.67645,0 3.54892,2.38648 6.38325,5.3033 l 5.15334,5.3033 -13.32228,9.8995 c -19.23262,14.29134 -28.7402,19.23242 -38.49874,20.00777 -4.46392,0.35468 -8.99564,0.0452 -10.0705,-0.68781 z"
               style="fill:#800000;fill-opacity:1;stroke:none" />
            <path
               inkscape:connector-curvature="0"
               id="path3016"
               d="m 622.95647,324.85421 c 0.25927,-0.59561 7.91689,-8.25257 17.01692,-17.01545 15.03319,-14.47621 16.90753,-15.84589 20.5061,-14.98488 5.6997,1.36374 8.91033,3.23189 8.91033,5.18462 0,3.05561 -19.28143,20.31668 -26.98018,24.15313 -7.03008,3.50323 -20.62935,5.36459 -19.45317,2.66258 z"
               style="fill:#800000;fill-opacity:1;stroke:none" />
            <path
               inkscape:connector-curvature="0"
               id="path3018"
               d="m 872.23698,325.40225 c -11.78626,-5.48826 -26.07047,-20.05294 -26.07047,-26.58234 0,-3.18042 6.26934,-5.91751 10.89493,-4.75657 1.77493,0.44548 7.01676,5.61614 11.64851,11.49034 4.63175,5.87421 11.27506,12.9945 14.76291,15.82289 3.48785,2.82838 6.02915,5.64798 5.64734,6.26576 -1.34643,2.17857 -9.80382,1.05643 -16.88322,-2.24008 l 0,0 z"
               style="fill:#800000;fill-opacity:1;stroke:none" />
            <path
               inkscape:connector-curvature="0"
               id="path3020"
               d="m 907.53099,321.10098 c -10.9212,-3.41796 -35.90863,-23.08539 -35.90863,-28.26343 0,-2.24855 6.51208,-7.93182 9.02955,-7.88034 0.86738,0.0177 6.53384,4.47272 12.59214,9.89996 6.05829,5.42723 16.71793,13.70228 23.68807,18.389 6.97015,4.68671 12.67299,8.82308 12.67299,9.19193 0,1.40185 -16.51984,0.40118 -22.07412,-1.33712 z"
               style="fill:#800000;fill-opacity:1;stroke:none" />
            <path
               inkscape:connector-curvature="0"
               id="path3022"
               d="m 940.05309,314.09127 c -11.33971,-4.21535 -19.30242,-8.97449 -32.30929,-19.31057 -15.85067,-12.59595 -21.75709,-21.93154 -17.81629,-28.16011 1.82858,-2.89013 5.51288,-0.92763 19.52803,10.40194 13.00702,10.51461 45.38548,32.64901 49.81667,34.05542 3.60419,1.14392 3.65176,3.02214 0.12436,4.90995 -4.13207,2.21142 -9.7829,1.65736 -19.34347,-1.89663 l -10e-6,0 z"
               style="fill:#800000;fill-opacity:1;stroke:none" />
            <path
               inkscape:connector-curvature="0"
               id="path3028"
               d="m 745.34296,242.37128 c -6.72339,-5.54199 -9.48511,-10.89164 -9.48511,-18.37335 0,-5.09619 0.85355,-6.76672 6.17788,-12.09105 5.76612,-5.76611 6.68515,-6.17753 13.78859,-6.17259 8.97635,0.006 15.46418,3.38733 19.63915,10.23483 3.6657,6.01222 3.55973,11.73684 -0.36119,19.51226 -5.90177,11.70357 -19.9685,14.96031 -29.75932,6.8899 z m 19.52073,-3.32316 c 10.4325,-4.35898 13.79933,-17.60158 6.36515,-25.03576 -2.32484,-2.32484 -4.85757,-3.83727 -5.62829,-3.36094 -0.83032,0.51317 -1.05232,4.20497 -0.54482,9.06045 0.83758,8.01351 0.74176,8.30911 -4.34079,13.39167 -7.24704,7.24703 -5.378,9.92511 4.14875,5.94458 z"
               style="fill:#ffcc00;fill-opacity:1;stroke:none" />
          </g>
        </g>
      </g>
    </g>
  </g>
</svg>
