<?xml version="1.0" standalone="no"?>
<!DOCTYPE svg PUBLIC "-//W3C//DTD SVG 20010904//EN"
 "http://www.w3.org/TR/2001/REC-SVG-20010904/DTD/svg10.dtd">
<svg version="1.0" xmlns="http://www.w3.org/2000/svg"
 width="1280.000000pt" height="1280.000000pt" viewBox="0 0 1280.000000 1280.000000"
 preserveAspectRatio="xMidYMid meet">
<g transform="translate(0.000000,1280.000000) scale(0.100000,-0.100000)"
fill="#000000" stroke="none">
<path d="M6100 12794 c-463 -31 -741 -68 -1090 -145 -865 -191 -1718 -582
-2430 -1114 -1404 -1050 -2317 -2613 -2529 -4335 -32 -256 -41 -384 -48 -665
-21 -907 151 -1803 509 -2647 74 -175 262 -548 358 -713 924 -1578 2489 -2696
4270 -3050 1522 -303 3088 -50 4426 714 377 215 722 460 1049 745 152 132 453
434 592 592 1184 1351 1743 3107 1558 4893 -67 639 -225 1250 -480 1851 -72
168 -261 544 -355 705 -952 1625 -2575 2756 -4420 3079 -352 62 -624 86 -1030
90 -179 2 -350 2 -380 0z m575 -574 c1305 -69 2469 -526 3475 -1364 170 -142
523 -490 669 -661 691 -808 1151 -1787 1326 -2823 204 -1204 23 -2447 -515
-3537 -290 -588 -639 -1073 -1110 -1546 -341 -342 -649 -588 -1044 -834 -782
-489 -1636 -773 -2586 -861 -252 -24 -728 -24 -980 0 -993 91 -1876 395 -2685
924 -1103 721 -1931 1787 -2346 3022 -414 1234 -408 2535 16 3767 227 660 577
1276 1049 1843 156 189 521 553 711 711 598 497 1227 846 1954 1084 652 213
1385 311 2066 275z"/>
<path d="M3472 9210 l-812 -539 157 -236 c90 -135 162 -234 169 -231 6 2 240
156 520 342 280 185 642 425 804 532 162 107 296 196 298 197 5 4 -310 475
-317 475 -3 0 -372 -243 -819 -540z"/>
<path d="M8330 9514 c-84 -130 -149 -239 -144 -243 30 -27 1647 -1072 1654
-1069 11 4 314 468 309 473 -13 12 -1652 1075 -1658 1075 -4 0 -76 -106 -161
-236z"/>
<path d="M3975 8196 c-190 -47 -339 -195 -390 -387 -19 -69 -19 -199 0 -268
45 -169 184 -317 351 -372 338 -112 695 145 697 501 1 97 -17 168 -62 255 -70
136 -211 243 -359 274 -68 14 -173 13 -237 -3z"/>
<path d="M8503 8196 c-185 -47 -332 -190 -387 -376 -10 -33 -17 -91 -17 -145
0 -151 41 -252 148 -365 160 -170 400 -215 612 -115 136 65 257 213 290 355
15 66 13 197 -4 263 -43 167 -175 310 -340 368 -75 27 -227 34 -302 15z"/>
<path d="M6100 4714 c-19 -2 -80 -9 -135 -14 -514 -54 -1040 -214 -1575 -482
-198 -99 -532 -288 -572 -325 -16 -14 -17 -47 -17 -355 0 -264 2 -339 12 -335
6 3 75 48 152 102 707 490 1427 771 2133 835 172 16 605 8 762 -15 710 -100
1370 -386 2111 -914 19 -13 19 -7 19 335 l0 349 -28 16 c-15 9 -80 48 -144 87
-476 291 -1015 514 -1498 622 -336 75 -486 91 -865 95 -176 2 -336 1 -355 -1z"/>
</g>
</svg>
