<?xml version="1.0" standalone="no"?>
<!DOCTYPE svg PUBLIC "-//W3C//DTD SVG 20010904//EN"
 "http://www.w3.org/TR/2001/REC-SVG-20010904/DTD/svg10.dtd">
<svg version="1.0" xmlns="http://www.w3.org/2000/svg"
 width="1280.000000pt" height="1207.000000pt" viewBox="0 0 1280.000000 1207.000000"
 preserveAspectRatio="xMidYMid meet">
<g transform="translate(0.000000,1207.000000) scale(0.100000,-0.100000)"
fill="#000000" stroke="none">
<path d="M3860 12060 c-627 -26 -1227 -79 -1403 -125 -81 -21 -216 -86 -302
-145 -183 -127 -349 -362 -461 -650 -75 -196 -104 -382 -104 -672 0 -338 22
-546 106 -996 65 -350 98 -496 165 -742 69 -256 101 -344 172 -484 l62 -121
-5 -110 c-2 -60 -4 -144 -3 -185 1 -131 77 -485 167 -775 35 -113 121 -323
152 -371 23 -34 127 -84 176 -84 56 0 84 15 154 82 53 50 67 72 80 116 l16 54
44 -172 c24 -94 44 -185 44 -201 0 -36 -36 -75 -77 -85 -87 -19 -109 -28 -136
-56 l-30 -29 6 -117 c18 -336 131 -685 288 -895 87 -115 213 -206 329 -237 85
-23 95 -36 144 -193 61 -196 66 -223 66 -330 0 -130 -3 -133 -165 -157 -116
-18 -256 -57 -525 -145 -151 -50 -310 -95 -390 -111 -139 -27 -380 -107 -612
-203 -131 -54 -156 -68 -333 -186 -58 -38 -176 -117 -263 -174 -452 -299 -705
-553 -866 -871 -139 -275 -179 -464 -196 -935 -17 -461 -49 -819 -126 -1398
-19 -147 -34 -277 -32 -289 2 -11 16 -30 31 -42 l28 -21 4342 -3 c3510 -2
4351 0 4387 11 64 18 80 53 80 177 0 52 7 273 16 490 28 681 6 948 -103 1290
-46 144 -162 376 -250 500 -84 116 -276 317 -403 419 -217 174 -444 312 -990
601 -407 215 -638 346 -810 457 -168 110 -311 216 -353 262 -48 53 -48 77 -1
285 43 195 97 512 123 724 46 367 56 542 56 962 -1 427 -10 569 -58 907 l-22
153 35 7 c19 4 89 7 154 7 l119 1 12 -40 c7 -22 18 -59 25 -82 18 -58 41 -77
82 -69 100 21 97 21 143 -24 56 -55 81 -55 140 -1 61 56 96 56 150 1 27 -27
48 -40 66 -40 18 0 44 14 74 40 58 50 98 54 139 11 16 -16 42 -35 58 -42 26
-11 33 -9 82 25 66 45 102 47 158 6 54 -40 86 -38 138 5 53 44 89 45 150 5 58
-39 82 -38 140 5 66 48 93 46 163 -12 l55 -48 -5 -53 c-8 -69 15 -223 38 -261
41 -68 102 -76 394 -52 77 6 192 11 255 11 134 0 178 10 225 51 45 40 62 95
79 262 8 77 17 141 20 144 3 4 29 -8 57 -25 27 -18 60 -32 73 -32 22 0 108 49
120 68 10 17 85 6 109 -16 60 -57 121 -48 163 24 35 59 58 58 129 -6 65 -59
86 -62 152 -20 59 38 78 38 153 -2 l61 -32 52 24 c74 33 125 36 175 11 60 -31
95 -27 140 13 32 29 49 36 116 45 42 6 94 11 115 11 45 0 164 -55 209 -98 l32
-30 0 -107 c0 -157 28 -251 118 -390 120 -187 331 -324 579 -374 125 -26 201
-26 318 -2 335 69 590 290 683 591 45 145 36 233 -39 422 -22 53 -42 116 -45
141 l-6 45 59 40 c90 61 116 96 110 148 -6 55 -38 98 -103 140 -29 19 -55 37
-58 42 -5 9 27 102 68 198 32 77 50 251 35 345 -28 173 -146 375 -291 498
-250 212 -565 276 -844 171 -288 -107 -482 -313 -570 -607 -23 -74 -27 -106
-26 -200 1 -133 -6 -147 -102 -192 -91 -44 -170 -60 -268 -54 -50 3 -115 -1
-165 -10 l-83 -14 -15 24 c-9 12 -33 35 -54 49 -47 31 -73 26 -129 -22 -22
-19 -45 -34 -51 -34 -7 0 -38 14 -71 30 -33 17 -67 30 -77 30 -10 0 -49 -21
-86 -46 -58 -38 -70 -43 -80 -31 -23 28 -92 67 -120 67 -15 0 -51 -16 -80 -35
-28 -19 -55 -35 -60 -35 -4 0 -25 14 -46 30 -53 43 -98 48 -163 20 -39 -17
-69 -22 -115 -21 -34 1 -71 -3 -82 -9 -44 -23 -46 0 -44 416 2 277 7 425 17
514 9 69 27 229 41 355 15 127 39 307 55 400 41 237 107 715 121 867 31 355
-88 809 -293 1117 -28 42 -97 122 -153 177 -126 125 -190 159 -390 210 -151
38 -190 41 -735 64 -135 5 -425 20 -645 32 -323 18 -517 22 -1010 23 -335 0
-934 3 -1330 7 -396 4 -817 3 -935 -2z m1025 -1701 c365 -8 994 -10 1805 -7
1289 5 1301 5 1377 -35 51 -27 70 -60 82 -144 20 -142 22 -333 9 -918 -12
-577 -16 -983 -9 -1250 3 -167 2 -195 -13 -195 -6 0 -41 20 -78 45 -85 57
-116 58 -177 10 -24 -19 -51 -35 -59 -35 -8 0 -34 18 -58 40 -55 51 -89 53
-137 8 -18 -18 -38 -41 -44 -51 -13 -24 -51 -10 -111 43 -24 22 -55 40 -68 40
-12 0 -44 -18 -69 -40 -25 -22 -56 -40 -67 -40 -11 0 -40 18 -64 40 -24 22
-54 40 -66 40 -13 0 -39 -19 -67 -49 -65 -69 -93 -72 -153 -15 -65 61 -85 58
-171 -25 l-48 -46 -69 38 c-94 52 -122 49 -172 -18 -21 -27 -56 -84 -78 -126
-32 -63 -46 -78 -77 -92 -30 -12 -237 -47 -284 -47 -4 0 -16 26 -24 58 -215
774 -588 1247 -1125 1422 -165 54 -302 74 -505 74 -147 0 -200 -4 -292 -22
-205 -41 -390 -117 -563 -230 -116 -77 -316 -278 -399 -402 -76 -115 -168
-301 -213 -430 l-32 -95 -8 50 c-5 28 -23 79 -41 114 -30 60 -32 72 -31 160 1
198 25 1235 33 1456 9 220 10 234 41 325 81 242 176 336 362 359 79 9 1027 4
1663 -10z m7272 -1826 c46 -26 152 -149 178 -208 45 -100 41 -251 -11 -364
-51 -114 -147 -185 -251 -185 -55 -1 -65 2 -100 32 -21 18 -62 44 -91 58 -48
23 -58 25 -97 15 -24 -6 -71 -27 -103 -46 -105 -61 -228 -74 -281 -30 -54 46
-65 95 -58 263 8 214 40 326 116 405 75 80 140 88 251 32 92 -46 126 -46 225
5 91 46 166 54 222 23z m59 -1252 c174 -128 228 -341 143 -562 -26 -68 -44
-96 -93 -148 -73 -75 -146 -121 -198 -121 -27 0 -47 9 -79 36 -95 79 -155 84
-251 20 -47 -32 -65 -38 -111 -38 -70 -1 -103 19 -180 106 -76 86 -99 140
-105 241 -12 233 84 441 213 461 39 5 56 1 143 -40 65 -31 111 -46 138 -46 41
0 106 26 155 60 35 25 124 58 160 59 14 1 44 -12 65 -28z"/>
</g>
</svg>
