<?xml version="1.0" standalone="no"?>
<!DOCTYPE svg PUBLIC "-//W3C//DTD SVG 20010904//EN"
 "http://www.w3.org/TR/2001/REC-SVG-20010904/DTD/svg10.dtd">
<svg version="1.0" xmlns="http://www.w3.org/2000/svg"
 width="862.000000pt" height="1280.000000pt" viewBox="0 0 862.000000 1280.000000"
 preserveAspectRatio="xMidYMid meet">
<g transform="translate(0.000000,1280.000000) scale(0.100000,-0.100000)"
fill="#000000" stroke="none">
<path d="M2823 12776 c-40 -13 -94 -38 -121 -54 -81 -53 -119 -64 -207 -63
-44 1 -111 7 -148 15 -37 7 -79 11 -93 8 -58 -11 -125 -138 -149 -279 -4 -24
-10 -43 -13 -43 -4 0 -39 9 -77 20 -290 84 -607 121 -853 100 -141 -12 -286
-38 -358 -63 -195 -70 -430 -256 -551 -437 -177 -264 -266 -608 -249 -958 3
-70 9 -216 12 -324 4 -109 10 -198 15 -198 5 0 31 9 59 20 28 11 53 20 55 20
3 0 5 -61 5 -135 0 -74 3 -135 8 -135 4 0 22 20 40 43 18 23 43 55 56 71 l25
30 67 -64 c94 -87 173 -144 268 -190 121 -60 212 -79 434 -94 191 -13 192 -13
230 -43 20 -16 59 -67 85 -112 56 -95 94 -125 147 -117 38 6 70 37 70 67 0 29
23 33 106 19 l74 -13 0 -112 c0 -136 17 -233 72 -402 112 -351 414 -938 701
-1361 127 -187 441 -478 1006 -931 129 -104 156 -131 173 -170 107 -246 216
-429 305 -513 l50 -46 -38 -223 c-23 -138 -64 -330 -108 -500 -94 -365 -94
-366 9 -730 64 -224 96 -380 120 -593 11 -94 25 -211 32 -261 15 -123 14 -444
-2 -525 -7 -36 -12 -117 -11 -180 2 -86 -3 -141 -19 -215 -35 -163 -128 -434
-190 -557 -43 -85 -86 -214 -100 -300 -15 -94 -8 -341 12 -412 l14 -50 -91
-90 c-134 -134 -255 -310 -391 -570 l-62 -118 -164 -82 c-435 -217 -660 -432
-676 -644 -3 -55 0 -78 16 -114 19 -43 23 -47 104 -76 46 -16 137 -42 203 -58
105 -24 141 -28 290 -28 129 -1 190 4 253 17 168 37 293 90 377 162 124 105
276 190 380 214 28 6 108 21 179 32 365 59 618 193 702 374 20 45 25 86 48
396 21 285 29 355 46 398 29 76 77 240 105 362 42 187 62 351 95 774 25 319
53 569 86 780 43 269 44 285 52 810 l8 510 32 80 c17 44 88 184 157 310 125
229 146 274 205 435 37 102 137 325 225 505 l63 130 1 -85 1 -85 -39 -22 c-21
-12 -44 -35 -51 -53 -11 -26 -10 -38 8 -86 l20 -56 -33 -29 c-39 -35 -70 -107
-60 -139 4 -13 25 -43 48 -67 l40 -44 -36 -33 c-51 -46 -48 -76 15 -142 l29
-31 -41 -27 c-33 -22 -40 -32 -40 -59 0 -40 23 -75 60 -91 l26 -11 -12 -72
c-16 -96 -47 -190 -96 -293 -36 -74 -41 -96 -46 -174 -3 -52 0 -112 8 -145 6
-31 58 -173 115 -316 94 -236 107 -275 134 -420 39 -204 59 -363 67 -523 8
-156 -11 -983 -32 -1422 l-16 -325 -131 -210 c-72 -115 -163 -258 -203 -316
-142 -205 -192 -351 -160 -460 28 -97 100 -153 243 -190 99 -25 220 -25 398 2
438 64 724 211 826 424 16 33 29 66 29 74 0 33 189 237 326 351 l42 35 26 241
c22 202 30 250 52 300 41 92 66 209 67 304 0 70 -4 96 -25 145 -78 180 -105
443 -72 690 9 71 14 149 10 190 -3 39 -10 135 -16 215 -7 80 -30 269 -52 420
-25 176 -43 338 -48 450 -8 176 -15 212 -58 296 -19 37 -19 44 -7 105 16 75
60 222 155 519 74 231 84 265 159 555 148 566 388 1186 721 1860 137 278 166
348 198 490 124 537 -41 1214 -458 1881 -125 201 -365 503 -571 718 -283 296
-590 529 -1034 786 -88 51 -286 168 -440 260 -377 225 -558 326 -890 496 -319
163 -623 305 -905 424 -237 101 -243 102 -660 105 l-305 2 -130 43 c-168 55
-256 62 -362 26z m472 -3793 c195 -131 470 -244 823 -337 154 -40 190 -63 302
-184 134 -145 147 -167 167 -272 29 -157 20 -766 -11 -798 -6 -5 -292 170
-384 235 -111 79 -363 346 -586 622 -38 46 -132 148 -210 225 -78 78 -163 167
-190 199 l-49 57 -33 193 c-18 105 -36 206 -39 224 -5 29 -1 27 72 -46 43 -43
105 -96 138 -118z"/>
</g>
</svg>
