<?xml version="1.0" encoding="UTF-8" standalone="no"?>
<svg
   xmlns:dc="http://purl.org/dc/elements/1.1/"
   xmlns:cc="http://creativecommons.org/ns#"
   xmlns:rdf="http://www.w3.org/1999/02/22-rdf-syntax-ns#"
   xmlns:svg="http://www.w3.org/2000/svg"
   xmlns="http://www.w3.org/2000/svg"
   xmlns:sodipodi="http://sodipodi.sourceforge.net/DTD/sodipodi-0.dtd"
   xmlns:inkscape="http://www.inkscape.org/namespaces/inkscape"
   version="1.0"
   width="1280.000000pt"
   height="1280.000000pt"
   viewBox="0 0 1280.000000 1280.000000"
   preserveAspectRatio="xMidYMid meet"
   id="svg16"
   sodipodi:docname="Stroke.svg"
   inkscape:version="0.92.2 (5c3e80d, 2017-08-06)">
  <title
     id="title4518">Stroke</title>
  <metadata
     id="metadata22">
    <rdf:RDF>
      <cc:Work
         rdf:about="">
        <dc:format>image/svg+xml</dc:format>
        <dc:type
           rdf:resource="http://purl.org/dc/dcmitype/StillImage" />
        <dc:title>Stroke</dc:title>
      </cc:Work>
    </rdf:RDF>
  </metadata>
  <defs
     id="defs20" />
  <sodipodi:namedview
     pagecolor="#ffffff"
     bordercolor="#666666"
     borderopacity="1"
     objecttolerance="10"
     gridtolerance="10"
     guidetolerance="10"
     inkscape:pageopacity="0"
     inkscape:pageshadow="2"
     inkscape:window-width="1920"
     inkscape:window-height="1027"
     id="namedview18"
     showgrid="false"
     inkscape:zoom="0.35300096"
     inkscape:cx="853.33333"
     inkscape:cy="853.33333"
     inkscape:window-x="-8"
     inkscape:window-y="-8"
     inkscape:window-maximized="1"
     inkscape:current-layer="g14" />
  <g
     transform="matrix(0.1,0,0,-0.1,0,1280)"
     id="g14"
     style="fill:#000000;stroke:none">
    <path
       d="m 6100,12794 c -463,-31 -741,-68 -1090,-145 C 4145,12458 3592.4695,10564.652 2880.4695,10032.652 1476.4695,8982.6525 263,8922 51,7200 19,6944 10,6816 3,6535 -18,5628 154,4732 512,3888 586,3713 774,3340 870,3175 1794,1597 3359,479 5140,125 6662,-178 8228,75 9566,839 c 377,215 722,460 1049,745 152,132 453,434 592,592 1184,1351 1743,3107 1558,4893 -67,639 -225,1250 -480,1851 -72,168 -261,544 -355,705 -952,1625 -2575,2756 -4420,3079 -352,62 -624,86 -1030,90 -179,2 -350,2 -380,0 z m 575,-574 c 1305,-69 2469,-526 3475,-1364 170,-142 523,-490 669,-661 691,-808 1151,-1787 1326,-2823 204,-1204 23,-2447 -515,-3537 C 11340,3247 10991,2762 10520,2289 10179,1947 9871,1701 9476,1455 8694,966 7840,682 6890,594 6638,570 6162,570 5910,594 4917,685 4034,989 3225,1518 2122,2239 1294,3305 879,4540 465,5774 471,7075 895,8307 c 497.4225,449.6714 1358.2206,780.2254 2025.5258,1106.8498 156,189 626.1644,312.6243 695.9766,650.9062 598,497 265.4976,1642.244 992.4976,1880.244 652,213 1385,311 2066,275 z"
       id="path2"
       inkscape:connector-curvature="0"
       sodipodi:nodetypes="ccccccccccccccccccccccccccccccccc" />
    <path
       d="m 4540.1327,8054.5116 706.0675,671.8137 -195.5958,205.1518 c -112.0752,117.3207 -200.1725,202.314 -206.5452,198.144 -5.5616,-3.0115 -209.2648,-195.3055 -452.7124,-427.1013 -243.6212,-230.8109 -558.4461,-530.0254 -699.4046,-663.5309 -140.9585,-133.5053 -257.468,-244.4221 -259.264,-245.7542 -4.2295,-4.8075 387.7733,-413.9527 394.667,-412.7372 2.9543,0.5209 324.1519,303.9054 712.7875,674.0141 z"
       id="path4"
       inkscape:connector-curvature="0" />
    <path
       d="m 8954.4989,9858.6857 c -130,84 -239,149.0003 -243,144.0003 -27.0001,-30.0003 -1072.0001,-1647.0007 -1068.9999,-1653.9999 3.9999,-11.0005 467.9997,-314.0006 472.9998,-309.0006 12,13 1075,1652.0001 1075.0001,1658.0002 -1e-4,3.9999 -106,75.9999 -236,161 z"
       id="path6"
       inkscape:connector-curvature="0" />
    <path
       d="m 4891.4319,8015.7184 c -190,-47 -339,-195 -390,-387 -19,-69 -19,-199 0,-268 45,-169 184,-317 351,-372 338,-112 695,145 697,501 1,97 -17,168 -62,255 -70,136 -211,243 -359,274 -68,14 -173,13 -237,-3 z"
       id="path8"
       inkscape:connector-curvature="0" />
    <path
       d="m 9103.939,8090.8357 c -185,-47 -332,-190 -387,-376 -10,-33 -17,-91 -17,-145 0,-151 41,-252 148,-365 160,-170 400,-215 612,-115 136,65 257,213 290,355 15,66 13,197 -4,263 -43,167 -175,310 -340,368 -75,27 -227,34 -302,15 z"
       id="path10"
       inkscape:connector-curvature="0" />
    <path
       d="m 7137.1372,4499.6003 c 18.8702,2.9857 79.6034,12.0122 134.0234,21.4176 510.4622,80.8729 1059.9502,62.4636 1646.084,-57.9362 216.8765,-44.3806 588.4124,-140.495 636.6257,-165.8815 19.0783,-9.3819 28.5853,-40.9985 108.3016,-338.5037 68.3282,-255.0044 85.8078,-327.9664 75.1132,-326.691 -6.572,1.345 -84.8677,26.9531 -173.2203,59.184 -809.7309,290.3185 -1577.9256,375.394 -2276.4337,254.487 -170.2803,-29.0621 -586.4556,-148.8581 -732.1531,-211.7089 -659.9254,-280.3543 -1223.4142,-727.4296 -1802.5089,-1429.2234 -14.9879,-17.4745 -16.5408,-11.6789 -105.0569,318.6676 l -90.3279,337.1082 22.9048,22.7017 c 12.1596,12.5757 64.8507,67.07 116.5761,121.3055 384.4644,404.2823 847.3817,759.1872 1285.9714,988.5168 305.1398,159.4077 445.8876,213.6853 810.938,315.6414 169.4854,47.484 324.2923,87.9291 343.1626,90.9149 z"
       id="path12"
       inkscape:connector-curvature="0" />
  </g>
</svg>
