<?xml version="1.0" encoding="UTF-8" standalone="no"?>
<!-- Created with Inkscape (http://www.inkscape.org/) -->

<svg
   xmlns:dc="http://purl.org/dc/elements/1.1/"
   xmlns:cc="http://creativecommons.org/ns#"
   xmlns:rdf="http://www.w3.org/1999/02/22-rdf-syntax-ns#"
   xmlns:svg="http://www.w3.org/2000/svg"
   xmlns="http://www.w3.org/2000/svg"
   xmlns:sodipodi="http://sodipodi.sourceforge.net/DTD/sodipodi-0.dtd"
   xmlns:inkscape="http://www.inkscape.org/namespaces/inkscape"
   width="1024"
   height="1024"
   viewBox="0 0 1024 1024"
   version="1.1"
   id="svg1480"
   inkscape:version="0.92.2 (5c3e80d, 2017-08-06)"
   sodipodi:docname="Stroke.svg">
  <defs
     id="defs1474" />
  <sodipodi:namedview
     id="base"
     pagecolor="#ffffff"
     bordercolor="#666666"
     borderopacity="1.0"
     inkscape:pageopacity="0.0"
     inkscape:pageshadow="2"
     inkscape:zoom="0.2201416"
     inkscape:cx="1935.1181"
     inkscape:cy="1935.1181"
     inkscape:document-units="px"
     inkscape:current-layer="layer1"
     showgrid="false"
     inkscape:window-width="1920"
     inkscape:window-height="1027"
     inkscape:window-x="-8"
     inkscape:window-y="-8"
     inkscape:window-maximized="1"
     units="px" />
  <metadata
     id="metadata1477">
    <rdf:RDF>
      <cc:Work
         rdf:about="">
        <dc:format>image/svg+xml</dc:format>
        <dc:type
           rdf:resource="http://purl.org/dc/dcmitype/StillImage" />
        <dc:title></dc:title>
      </cc:Work>
    </rdf:RDF>
  </metadata>
  <g
     inkscape:label="Layer 1"
     inkscape:groupmode="layer"
     id="layer1"
     transform="translate(0,-26.066735)">
    <g
       id="g2083"
       transform="matrix(3.023622,0,0,3.0247402,0,151.71896)">
      <path
         style="fill:#000000;stroke:none;stroke-width:0.02645994"
         sodipodi:nodetypes="ccccccccccccccccccccccccccccccccc"
         inkscape:connector-curvature="0"
         id="path2"
         d="m 161.3814,-41.501817 c -12.2517,0.82021 -19.60801,1.79916 -28.84309,3.83646 -22.88923,5.05354 -37.510039,55.14837 -56.350655,69.2242 -37.152001,27.78123 -69.2622765,29.386 -74.8721232,74.947247 -0.84676932,6.77334 -1.08492319,10.16 -1.27015398,17.5948 -0.55569237,23.9977 3.99569288,47.70437 13.46892418,70.0352 1.958154,4.63021 6.932924,14.49917 9.473232,18.8648 24.450466,41.75125 65.862775,71.33166 112.990786,80.69791 40.27446,8.01688 81.71323,1.32292 117.11877,-18.89125 9.976,-5.68854 19.10524,-12.17083 27.75817,-19.71146 4.02214,-3.4925 11.98708,-11.48291 15.66524,-15.66333 31.33045,-35.74521 46.12246,-82.20604 41.22708,-129.46062 -1.77294,-16.906877 -5.95386,-33.072917 -12.70156,-48.974377 -1.90521,-4.445 -6.90644,-14.39333 -9.39384,-18.65312 -25.19138,-42.99480029 -68.13847,-72.91917 -116.96001,-81.46521 -9.31446,-1.64042 -16.512,-2.27542 -27.25539,-2.38125 -4.73662,-0.0529 -9.26154,-0.0529 -10.05538,0 z m 15.21538,15.18708 c 34.53231,1.82563 65.33354,13.91708 91.95387,36.0891697 4.49845,3.7570803 13.83938,12.9645803 17.70277,17.4889603 18.28491,21.37833 30.45722,47.28104 35.08799,74.691867 5.39816,31.85583 0.60862,64.74354 -13.62769,93.58313 -7.67384,15.5575 -16.90891,28.38979 -29.37232,40.90458 -9.02337,9.04875 -17.17354,15.5575 -27.62584,22.06625 -20.69293,12.93812 -43.29108,20.45229 -68.42955,22.78062 -6.66831,0.635 -19.264,0.635 -25.93231,0 -26.27631,-2.4077 -49.64185,-10.45104 -71.049237,-24.4475 C 56.117384,237.76589 34.207228,209.5613 23.225688,176.88526 12.27061,144.23568 12.429379,109.81339 23.649072,77.216723 c 13.162569,-11.89757 35.940611,-20.64348 53.598535,-29.28541 4.128,-5.00062 16.569275,-8.27151 18.416611,-17.22188 15.824002,-13.1498 7.025472,-43.45104 26.263022,-49.74813 17.25292,-5.63562 36.64923,-8.22854 54.66954,-7.27604 z" />
      <path
         style="fill:#000000;stroke:none;stroke-width:0.02645994"
         inkscape:connector-curvature="0"
         id="path4"
         d="m 120.1049,120.02157 18.68364,-17.77505 -5.17577,-5.427977 c -2.96568,-3.10412 -5.29687,-5.35289 -5.4655,-5.24256 -0.14717,0.0797 -5.53747,5.16745 -11.97947,11.300377 -6.44659,6.10688 -14.77734,14.02358 -18.507324,17.55593 -3.72998,3.53232 -6.813,6.467 -6.860524,6.50224 -0.111922,0.12721 10.261078,10.9525 10.443498,10.92033 0.0782,-0.0138 8.57756,-8.04082 18.86145,-17.83329 z" />
      <path
         style="fill:#000000;stroke:none;stroke-width:0.02645994"
         inkscape:connector-curvature="0"
         id="path6"
         d="m 236.91584,72.286143 c -3.44,-2.2225 -6.32431,-3.94229 -6.43016,-3.81 -0.71446,0.79375 -28.36677,43.576897 -28.28738,43.762077 0.10584,0.29104 12.38399,8.30792 12.5163,8.17563 0.31754,-0.34396 28.44616,-43.709167 28.44616,-43.867917 0,-0.10583 -2.80492,-2.01083 -6.24492,-4.25979 z" />
      <path
         style="fill:#000000;stroke:none;stroke-width:0.02645994"
         inkscape:connector-curvature="0"
         id="path8"
         d="m 129.40082,121.04797 c -5.02769,1.24354 -8.97046,5.15938 -10.32,10.23938 -0.50277,1.82562 -0.50277,5.26521 0,7.09083 1.19077,4.47146 4.86893,8.38729 9.288,9.8425 8.944,2.96333 18.39077,-3.83646 18.4437,-13.25562 0.0265,-2.56646 -0.44985,-4.445 -1.64062,-6.74688 -1.85231,-3.59833 -5.58338,-6.42937 -9.49969,-7.24958 -1.79939,-0.37042 -4.57785,-0.34396 -6.27139,0.0794 z" />
      <path
         style="fill:#000000;stroke:none;stroke-width:0.02645994"
         inkscape:connector-curvature="0"
         id="path10"
         d="m 240.87025,119.0605 c -4.89538,1.24354 -8.78523,5.02709 -10.24061,9.94834 -0.26462,0.87312 -0.44985,2.4077 -0.44985,3.83645 0,3.99521 1.08492,6.6675 3.91631,9.6573 4.23385,4.49791 10.58462,5.68854 16.19446,3.0427 3.59877,-1.71979 6.80062,-5.63562 7.67385,-9.3927 0.39692,-1.74625 0.344,-5.2123 -0.10585,-6.95855 -1.13784,-4.41854 -4.63077,-8.20208 -8.99692,-9.73666 -1.98462,-0.71438 -6.00677,-0.89959 -7.99139,-0.39688 z" />
      <path
         style="fill:#000000;stroke:none;stroke-width:0.02645994"
         inkscape:connector-curvature="0"
         id="path12"
         d="m 188.82565,214.07862 c 0.49933,-0.079 2.10643,-0.31784 3.54646,-0.56668 13.50762,-2.13977 28.04792,-1.6527 43.55792,1.53289 5.73889,1.17424 15.5703,3.71726 16.8461,4.38896 0.50484,0.24823 0.75641,1.08474 2.86583,8.95622 1.80807,6.747 2.2706,8.67746 1.98761,8.64369 -0.17391,-0.0356 -2.24573,-0.71313 -4.58368,-1.56591 -21.42673,-7.68133 -41.75434,-9.9323 -60.23794,-6.7333 -4.50588,0.76893 -15.51852,3.93854 -19.3739,5.60147 -17.46265,7.41773 -32.37343,19.24659 -47.69717,37.81488 -0.3966,0.46234 -0.43769,0.30901 -2.77996,-8.43142 l -2.39022,-8.91932 0.6061,-0.60065 c 0.32176,-0.33274 1.71605,-1.77456 3.08478,-3.20953 10.17352,-10.69665 22.42303,-20.08685 34.02879,-26.15451 8.07446,-4.21766 11.79887,-5.65374 21.45866,-8.35136 4.48485,-1.25634 8.58128,-2.32645 9.08062,-2.40543 z" />
    </g>
  </g>
</svg>
